<?xml version="1.0" encoding="UTF-8" standalone="no"?>
<!-- Created with Inkscape (http://www.inkscape.org/) -->

<svg
   xmlns:dc="http://purl.org/dc/elements/1.1/"
   xmlns:cc="http://creativecommons.org/ns#"
   xmlns:rdf="http://www.w3.org/1999/02/22-rdf-syntax-ns#"
   xmlns:svg="http://www.w3.org/2000/svg"
   xmlns="http://www.w3.org/2000/svg"
   xmlns:xlink="http://www.w3.org/1999/xlink"
   xmlns:sodipodi="http://sodipodi.sourceforge.net/DTD/sodipodi-0.dtd"
   xmlns:inkscape="http://www.inkscape.org/namespaces/inkscape"
   id="svg3222"
   version="1.1"
   inkscape:version="0.48.3.1 r9886"
   width="403"
   height="162"
   sodipodi:docname="AgrammarofRapaNuiCURRENTDOC-img8.svg">
  <metadata
     id="metadata3228">
    <rdf:RDF>
      <cc:Work
         rdf:about="">
        <dc:format>image/svg+xml</dc:format>
        <dc:type
           rdf:resource="http://purl.org/dc/dcmitype/StillImage" />
        <dc:title></dc:title>
      </cc:Work>
    </rdf:RDF>
  </metadata>
  <defs
     id="defs3226">
    <marker
       inkscape:stockid="Arrow1Send"
       orient="auto"
       refY="0"
       refX="0"
       id="Arrow1Send"
       style="overflow:visible">
      <path
         inkscape:connector-curvature="0"
         id="path4093"
         d="M 0,0 5,-5 -12.5,0 5,5 0,0 z"
         style="fill-rule:evenodd;stroke:#000000;stroke-width:1pt"
         transform="matrix(-0.2,0,0,-0.2,-1.2,0)" />
    </marker>
    <marker
       inkscape:stockid="Arrow1Send"
       orient="auto"
       refY="0"
       refX="0"
       id="marker7615"
       style="overflow:visible">
      <path
         inkscape:connector-curvature="0"
         id="path7617"
         d="M 0,0 5,-5 -12.5,0 5,5 0,0 z"
         style="fill-rule:evenodd;stroke:#000000;stroke-width:1pt"
         transform="matrix(-0.2,0,0,-0.2,-1.2,0)" />
    </marker>
  </defs>
  <sodipodi:namedview
     pagecolor="#ffffff"
     bordercolor="#666666"
     borderopacity="1"
     objecttolerance="10"
     gridtolerance="10"
     guidetolerance="10"
     inkscape:pageopacity="0"
     inkscape:pageshadow="2"
     inkscape:window-width="1680"
     inkscape:window-height="1022"
     id="namedview3224"
     showgrid="false"
     inkscape:zoom="2.0138232"
     inkscape:cx="298.81053"
     inkscape:cy="113.574"
     inkscape:window-x="1680"
     inkscape:window-y="0"
     inkscape:window-maximized="1"
     inkscape:current-layer="layer10" />
  <g
     inkscape:groupmode="layer"
     id="layer10"
     inkscape:label="orig"
     style="opacity:0.31578944;display:none">
    <image
       width="403"
       height="162"
       xlink:href="file:///home/snordhoff/versioning/git/langsci/books/kieviet/6487292jhqxvd/figures/AgrammarofRapaNuiCURRENTDOC-img8.png"
       id="image3230"
       x="0.74888718"
       y="0.24089372" />
  </g>
  <g
     inkscape:groupmode="layer"
     id="layer11"
     inkscape:label="grid2"
     style="display:inline">
    <text
       xml:space="preserve"
       style="font-size:8px;font-style:normal;font-variant:normal;font-weight:normal;font-stretch:normal;text-align:start;line-height:125%;letter-spacing:0px;word-spacing:0px;writing-mode:lr-tb;text-anchor:start;fill:#000000;fill-opacity:1;stroke:none;display:inline;font-family:Linux Biolinum O;-inkscape-font-specification:Linux Biolinum O"
       x="-94.611938"
       y="21.209312"
       id="text6373"
       sodipodi:linespacing="125%"
       transform="matrix(0,-1,1,0,0,0)"><tspan
         sodipodi:role="line"
         id="tspan6375"
         x="-94.611938"
         y="21.209312">semitones</tspan></text>
    <path
       style="fill:none;stroke:#000000;stroke-width:1.08183086px;stroke-linecap:butt;stroke-linejoin:miter;stroke-opacity:1;marker-end:url(#Arrow1Send);display:inline"
       d="m 54.673412,143.65026 340.693718,0"
       id="path4066"
       inkscape:connector-curvature="0" />
    <path
       style="fill:none;stroke:#000000;stroke-width:1px;stroke-linecap:butt;stroke-linejoin:miter;stroke-opacity:1;marker-end:url(#Arrow1Send);display:inline"
       d="M 49.552171,140.68533 49.606081,8.5033908"
       id="path4068"
       inkscape:connector-curvature="0" />
    <text
       xml:space="preserve"
       style="font-size:14px;font-style:normal;font-variant:normal;font-weight:normal;font-stretch:normal;text-align:start;line-height:125%;letter-spacing:0px;word-spacing:0px;writing-mode:lr-tb;text-anchor:start;fill:#000000;fill-opacity:1;stroke:none;display:inline;font-family:Linux Biolinum O;-inkscape-font-specification:Linux Biolinum O"
       x="129.08252"
       y="156.64984"
       id="text6635"
       sodipodi:linespacing="125%"><tspan
         sodipodi:role="line"
         id="tspan6637"
         x="129.08252"
         y="156.64984" /></text>
    <text
       xml:space="preserve"
       style="font-size:14px;font-style:normal;font-variant:normal;font-weight:normal;font-stretch:normal;text-align:start;line-height:125%;letter-spacing:0px;word-spacing:0px;writing-mode:lr-tb;text-anchor:start;fill:#000000;fill-opacity:1;stroke:none;font-family:Linux Biolinum O;-inkscape-font-specification:Linux Biolinum O"
       x="142.39085"
       y="157.34467"
       id="text7688"
       sodipodi:linespacing="125%"><tspan
         sodipodi:role="line"
         id="tspan7690"
         x="142.39085"
         y="157.34467">0.500</tspan></text>
    <text
       xml:space="preserve"
       style="font-size:14px;font-style:normal;font-variant:normal;font-weight:normal;font-stretch:normal;text-align:start;line-height:125%;letter-spacing:0px;word-spacing:0px;writing-mode:lr-tb;text-anchor:start;fill:#000000;fill-opacity:1;stroke:none;font-family:Linux Biolinum O;-inkscape-font-specification:Linux Biolinum O"
       x="239.2216"
       y="157.40674"
       id="text7692"
       sodipodi:linespacing="125%"><tspan
         sodipodi:role="line"
         id="tspan7694"
         x="239.2216"
         y="157.40674">1.000</tspan></text>
    <text
       xml:space="preserve"
       style="font-size:14px;font-style:normal;font-variant:normal;font-weight:normal;font-stretch:normal;text-align:start;line-height:125%;letter-spacing:0px;word-spacing:0px;writing-mode:lr-tb;text-anchor:start;fill:#000000;fill-opacity:1;stroke:none;font-family:Linux Biolinum O;-inkscape-font-specification:Linux Biolinum O"
       x="336.30063"
       y="157.15846"
       id="text7696"
       sodipodi:linespacing="125%"><tspan
         sodipodi:role="line"
         id="tspan7698"
         x="336.30063"
         y="157.15846">1.500</tspan></text>
    <text
       xml:space="preserve"
       style="font-size:14px;font-style:normal;font-variant:normal;font-weight:normal;font-stretch:normal;text-align:start;line-height:125%;letter-spacing:0px;word-spacing:0px;writing-mode:lr-tb;text-anchor:start;fill:#000000;fill-opacity:1;stroke:none;font-family:Linux Biolinum O;-inkscape-font-specification:Linux Biolinum O"
       x="32.897625"
       y="128.29546"
       id="text7700"
       sodipodi:linespacing="125%"><tspan
         sodipodi:role="line"
         id="tspan7702"
         x="32.897625"
         y="128.29546">42</tspan></text>
    <text
       xml:space="preserve"
       style="font-size:14px;font-style:normal;font-variant:normal;font-weight:normal;font-stretch:normal;text-align:start;line-height:125%;letter-spacing:0px;word-spacing:0px;writing-mode:lr-tb;text-anchor:start;fill:#000000;fill-opacity:1;stroke:none;font-family:Linux Biolinum O;-inkscape-font-specification:Linux Biolinum O"
       x="32.711411"
       y="85.031967"
       id="text7704"
       sodipodi:linespacing="125%"><tspan
         sodipodi:role="line"
         id="tspan7706"
         x="32.711411"
         y="85.031967">48</tspan></text>
    <text
       xml:space="preserve"
       style="font-size:14px;font-style:normal;font-variant:normal;font-weight:normal;font-stretch:normal;text-align:start;line-height:125%;letter-spacing:0px;word-spacing:0px;writing-mode:lr-tb;text-anchor:start;fill:#000000;fill-opacity:1;stroke:none;font-family:Linux Biolinum O;-inkscape-font-specification:Linux Biolinum O"
       x="32.152775"
       y="42.26506"
       id="text7708"
       sodipodi:linespacing="125%"><tspan
         sodipodi:role="line"
         id="tspan7710"
         x="32.152775"
         y="42.26506">54</tspan></text>
    <text
       xml:space="preserve"
       style="font-size:8px;font-style:normal;font-variant:normal;font-weight:normal;font-stretch:normal;text-align:start;line-height:125%;letter-spacing:0px;word-spacing:0px;writing-mode:lr-tb;text-anchor:start;fill:#000000;fill-opacity:1;stroke:none;display:inline;font-family:Linux Biolinum O;-inkscape-font-specification:Linux Biolinum O"
       x="199.24416"
       y="160.54002"
       id="text6369"
       sodipodi:linespacing="125%"><tspan
         sodipodi:role="line"
         id="tspan6371"
         x="199.24416"
         y="160.54002">t (sec)</tspan></text>
  </g>
  <g
     inkscape:groupmode="layer"
     id="layer12"
     inkscape:label="path"
     style="display:inline;opacity:1">
    <path
       style="fill:none;stroke:#000000;stroke-opacity:1;display:inline"
       d="m 303.92437,133.88507 c -0.70918,-0.80408 -3.07132,-2.42756 -3.36104,-2.95534 -1.20657,-0.55827 -2.27336,-2.56396 -3.92336,-3.77092 -3.42507,-2.57924 -6.74961,-5.36582 -9.4267,-8.00123 -0.16022,-3.77306 -4.23996,-3.85775 -7.63647,-3.32526 -5.135,0.80504 -7.01823,-1.6416 -11.00859,-14.37481 -2.38293,-7.603929 -3.38399,-12.712893 -4.31208,-13.620706 -5.00685,-11.194816 -9.09074,-15.601417 -17.43004,-6.343827 -1.64328,1.845725 -3.77406,2.964537 -4.26007,2.964537 -0.486,0 -1.79998,1.482666 -2.91995,3.294813 -3.98588,6.449286 -9.41194,10.705187 -13.64858,10.705187 -0.8916,0 -2.27697,0.65588 -3.0786,1.45751 -2.11532,2.115316 -4.4338,0.794156 -4.39963,-2.544262 0.049,-4.785018 -0.017,-11.121585 -7.03366,-13.819286 -2.64239,-1.015916 -3.09735,-3.4847 -3.09735,-4.037737 -2.72438,-7.344353 -12.14749,-11.911342 -16.03439,-11.80672 -1.71579,-4.97e-4 -3.93875,-1.1558 -5.06086,-3.055387 -3.12564,-8.047765 -15.4476,-12.476955 -19.81365,-21.367029 -1.06895,-2.46035 -1.77113,-4.832764 -1.11874,-4.32949 m -98.859413,36.014043 -2.1422,1.988358 M 387.50139,53.879763 c -0.50964,0.507237 -3.47573,0.19841 -6.59131,0.07236 -5.49005,-0.222112 -5.34114,0.335955 -10.78118,-5.314313 -3.08719,-3.206494 -5.55019,-7.560655 -6.23197,-8.310351 -0.68179,-0.749696 -3.48657,-1.485484 -4.86728,-2.848917 -1.38072,-1.363432 -2.51039,-3.020608 -2.51039,-3.682612 0,-2.143526 -3.46879,-4.278839 -6,-1.838419 -0.83082,0.801018 -2,1.267372 -2,2.040546 0,0.773174 -1.13044,3.33035 -2.5121,5.682613 -1.38165,2.352262 -3.28781,5.964341 -4.2359,8.026841 -0.94809,2.0625 -2.06765,3.75 -2.4879,3.75 -0.42026,0 -0.7641,0.697347 -0.7641,1.54966 0,3.282903 -3.87687,7.080576 -6.14467,6.941732 M 152.22398,40.934001 c -0.0756,-0.461847 -3.3748,-10.966251 -3.44281,-11.402698 -1.41336,-9.069465 -1.79433,-12.760094 -4.24735,-15.442861 -1.25212,-1.369385 -3.39385,-3.768766 -3.39385,-4.1181359 0,-1.6680855 -7.47148,-2.3715708 -10.6308,-0.7446409 -3.04737,1.5692808 -10.98991,13.0128558 -10.98991,15.2172378 0,0.493117 -0.44485,1.171506 -1.49428,3.511072 -1.05572,2.343458 -1.50572,3.298343 -1.50572,4.125506 0,1.793457 -5.17567,12.733887 -6.25,13.211366 -0.4125,0.183334 -0.75,0.764826 -0.75,1.292207 0,0.52738 -0.43882,1.50238 -0.97516,2.166666 -4.07863,5.051621 -6.20684,6.629345 -11.024845,8.173131 -4.538765,1.454314 -6.224802,1.565753 -9.647177,0.637631 -2.280948,-0.618575 -4.404325,-1.794796 -4.718616,-2.613825 -0.92831,-2.419137 -5.275643,-1.760442 -7.561627,1.145716 -1.139919,1.449172 -2.07258,3.164649 -2.07258,3.81217 0,0.647522 -0.9,3.040098 -2,5.316835 -1.1,2.276738 -2,4.786409 -2,5.577046 0,0.790637 -0.749674,2.993437 -2.018058,4.170732"
       id="path7668"
       inkscape:connector-curvature="0"
       sodipodi:nodetypes="ccccssccssssssccccccccsssssssssssccssssscsssssssssssc" />
  </g>
</svg>
