<?xml version="1.0" encoding="UTF-8" standalone="no"?>
<!-- Created with Inkscape (http://www.inkscape.org/) -->

<svg
   xmlns:dc="http://purl.org/dc/elements/1.1/"
   xmlns:cc="http://creativecommons.org/ns#"
   xmlns:rdf="http://www.w3.org/1999/02/22-rdf-syntax-ns#"
   xmlns:svg="http://www.w3.org/2000/svg"
   xmlns="http://www.w3.org/2000/svg"
   xmlns:xlink="http://www.w3.org/1999/xlink"
   xmlns:sodipodi="http://sodipodi.sourceforge.net/DTD/sodipodi-0.dtd"
   xmlns:inkscape="http://www.inkscape.org/namespaces/inkscape"
   id="svg3714"
   version="1.1"
   inkscape:version="0.48.3.1 r9886"
   width="420"
   height="164"
   sodipodi:docname="AgrammarofRapaNuiCURRENTDOC-img7.svg">
  <metadata
     id="metadata3720">
    <rdf:RDF>
      <cc:Work
         rdf:about="">
        <dc:format>image/svg+xml</dc:format>
        <dc:type
           rdf:resource="http://purl.org/dc/dcmitype/StillImage" />
        <dc:title></dc:title>
      </cc:Work>
    </rdf:RDF>
  </metadata>
  <defs
     id="defs3718">
    <marker
       inkscape:stockid="Arrow1Send"
       orient="auto"
       refY="0"
       refX="0"
       id="Arrow1Send"
       style="overflow:visible">
      <path
         inkscape:connector-curvature="0"
         id="path4093"
         d="M 0,0 5,-5 -12.5,0 5,5 0,0 z"
         style="fill-rule:evenodd;stroke:#000000;stroke-width:1pt"
         transform="matrix(-0.2,0,0,-0.2,-1.2,0)" />
    </marker>
    <marker
       inkscape:stockid="Arrow1Send"
       orient="auto"
       refY="0"
       refX="0"
       id="marker3789"
       style="overflow:visible">
      <path
         inkscape:connector-curvature="0"
         id="path3791"
         d="M 0,0 5,-5 -12.5,0 5,5 0,0 z"
         style="fill-rule:evenodd;stroke:#000000;stroke-width:1pt"
         transform="matrix(-0.2,0,0,-0.2,-1.2,0)" />
    </marker>
  </defs>
  <sodipodi:namedview
     pagecolor="#ffffff"
     bordercolor="#666666"
     borderopacity="1"
     objecttolerance="10"
     gridtolerance="10"
     guidetolerance="10"
     inkscape:pageopacity="0"
     inkscape:pageshadow="2"
     inkscape:window-width="1680"
     inkscape:window-height="1022"
     id="namedview3716"
     showgrid="false"
     inkscape:zoom="2"
     inkscape:cx="321.13651"
     inkscape:cy="103.93106"
     inkscape:window-x="1680"
     inkscape:window-y="0"
     inkscape:window-maximized="1"
     inkscape:current-layer="layer3" />
  <g
     inkscape:groupmode="layer"
     id="layer1"
     inkscape:label="orig"
     style="opacity:0.48221346;display:none">
    <image
       width="420"
       height="164"
       xlink:href="file:///home/snordhoff/versioning/git/langsci/books/kieviet/6487292jhqxvd/figures/AgrammarofRapaNuiCURRENTDOC-img7.png"
       id="image3722"
       x="0.7804783"
       y="0.39575255" />
  </g>
  <g
     inkscape:groupmode="layer"
     id="layer2"
     inkscape:label="path">
    <path
       style="fill:none;stroke:#000000;stroke-opacity:1"
       d="m 410.5159,21.736919 c -1.86492,0.06988 -5.44911,-1.026139 -7.949,-3.453879 -2.2423,-2.177583 -0.74083,-3.441319 -4.67807,-3.912386 -0.71411,-0.08544 -2.87325,4.261204 -3.35404,7.221085 -2.16077,13.30223 -4.25205,19.170635 -6.66555,18.704366 -0.94493,-0.182555 -2.56085,-4.760254 -5.14927,-9.823298 -5.01581,-9.811103 -7.35962,-10.999465 -9.38055,-10.999465 -4.06851,1.419552 -4.18529,4.841028 -5.72418,7.763569 -5.23482,9.76867 -11.08039,33.976305 -13.06723,54.113877 -1.12318,11.384031 -1.85734,14.058096 -4.69087,17.085906 -1.30564,1.395156 -2.65678,3.661646 -3.00254,5.036646 -0.34576,1.375 -1.4567,3.22778 -2.46875,4.1173 -1.01206,0.88951 -1.8401,2.07886 -1.8401,2.64301 0,1.57315 -1.24527,2.22215 -2.50587,0.96155 -1.57592,-1.52153 -2.00431,-4.73561 -4.03671,-5.31334 -0.73866,-1.13422 -1.54605,-1.69662 -1.90851,-3.15202 0,-0.75765 -0.82904,-2.18819 -1.61869,-2.843542 -0.78965,-0.65535 -1.24658,-2.805919 -1.6863,-4.555415 -0.68309,-2.717788 -1.80622,-1.265601 -2.34542,5.142457 -1.72867,20.54417 -2.26409,25.10791 -2.99892,25.56207 -1.96399,-4.11541 -1.89595,-32.002123 -5.46687,-34.475896 -2.05443,-1.36972 -3.72591,-5.660626 -4.35155,-7.860626 -0.62565,-2.2 -2.88394,-6.531645 -3.34122,-7.054145 m -17.75747,32.262437 c -0.50473,-2.2 -1.99036,-12.255365 -2.63051,-17.201789 -0.96767,-7.477145 -2.78773,-8.298625 -3.57699,-6.225546 -0.52213,1.371424 -1.34618,6.938751 -1.83123,12.371839 -0.5556,6.223346 -1.49673,10.816686 -2.5436,12.414396 -2.6248,4.00596 -10.17892,10.96543 -11.18642,10.30584 -1.59416,-1.04366 -2.11591,-4.96446 -2.11591,-7.69006 0,-1.44732 -0.50625,-4.03485 -1.125,-5.19099 -1.12333,-2.09896 -2.2248,-1.54958 -3.56237,0.86465 -0.73677,1.3298 -1.35552,3.43032 -1.375,4.66782 -0.0195,1.2375 -0.63837,2.25 -1.37529,2.25 -0.87781,0 -0.50453,-2.77457 -1.35084,-7.52445 -1.4659,-8.227288 -3.21357,-9.475548 -4.27028,-9.475548 -1.51653,0 -11.02004,9.344028 -11.02004,10.774778 0,0.41533 -3.51321,3.22522 -4.11725,3.22522 -1.17367,0 -7.83969,-6.98801 -7.87854,-8.2591 -0.0128,-0.41751 -0.70062,-2.22955 -2.31128,-3.91494 -2.60829,-2.729339 -2.5419,-3.38847 -4.60961,-2.302346 -1.27684,0.670698 -3.96217,2.377666 -4.402,3.122366 -0.43983,0.74471 -2.1115,1.35402 -3.71482,1.35402 -2.00535,0 -3.28491,0.7022 -4.10001,2.25 -1.16541,2.21302 -2.13065,3.79603 -3.37996,3.82617 M 79.735055,119.21817 c -0.32367,-1e-5 -1.061331,-6.08464 -2.057843,-12.84953 C 76.434543,97.932708 75.568615,92.935998 72.577016,91.259686 71.445745,90.625789 70.502159,88.849949 70.11925,87.820093 M 195.45249,61.030979 c 1.34837,-0.833339 0.0826,3.206337 -1.38678,4.425796 -0.94648,0.785511 -1.52654,0.354234 -2.30966,-1.717241 -0.57517,-1.521406 -0.28554,-5.466192 -0.58633,-8.766192 -0.67342,-7.388031 -4.96097,-19.57542 -9.10588,-25.972017 -2.98825,-4.611588 -7.80539,-6.758736 -9.43538,-4.904767 -1.00519,1.143311 -4.87536,11.298528 -5.28847,13.876784 -0.24247,1.513254 -3.59277,1.957317 -6.75791,2.098306 -2.42944,0.108217 -4.98088,2.830762 -5.03632,4.84027 -0.0181,0.656278 -2.50981,3.044787 -6.04606,4.083438 -4.50862,1.324251 -6.93545,2.488584 -13,2.889751 -2.76203,0.182707 -4.95253,-1.630782 -6.49652,-0.410686 -0.29651,0.234313 -1.15899,2.054161 -2.01647,2.383205 -4.0577,-1.63355 -3.79837,-5.462607 -4.34054,-9.891397 l -6.94769,0.918983 c -3.70001,0.489406 -7.84737,1.161978 -11.82269,3.576854 -5.084679,2.889854 -4.1453,5.699827 -7.87575,1.362192 -1.564299,-1.818911 -1.75396,-6.315487 -1.652635,-8.229515"
       id="path3848"
       inkscape:connector-curvature="0"
       sodipodi:nodetypes="csssssccssssscccsssccsccsssssssscssssscsssssccssccsssssssssssccsccc" />
  </g>
  <g
     inkscape:groupmode="layer"
     id="layer3"
     inkscape:label="grid"
     style="display:inline">
    <g
       transform="translate(-0.31244498,0.71595819)"
       style="display:inline"
       id="g4221">
      <text
         transform="matrix(0,-1,1,0,0,0)"
         sodipodi:linespacing="125%"
         id="text6373"
         y="22.328672"
         x="-93.496216"
         style="font-size:8px;font-style:normal;font-variant:normal;font-weight:normal;font-stretch:normal;text-align:start;line-height:125%;letter-spacing:0px;word-spacing:0px;writing-mode:lr-tb;text-anchor:start;fill:#000000;fill-opacity:1;stroke:none;display:inline;font-family:Linux Biolinum O;-inkscape-font-specification:Linux Biolinum O"
         xml:space="preserve"><tspan
           y="22.328672"
           x="-93.496216"
           id="tspan6375"
           sodipodi:role="line">semitones</tspan></text>
      <path
         inkscape:connector-curvature="0"
         id="path4066"
         d="m 55.792769,142.53454 359.823171,0"
         style="fill:none;stroke:#000000;stroke-width:1.11178768px;stroke-linecap:butt;stroke-linejoin:miter;stroke-opacity:1;marker-end:url(#Arrow1Send);display:inline" />
      <path
         inkscape:connector-curvature="0"
         id="path4068"
         d="M 50.671528,139.56961 50.725438,7.3876697"
         style="fill:none;stroke:#000000;stroke-width:1px;stroke-linecap:butt;stroke-linejoin:miter;stroke-opacity:1;marker-end:url(#Arrow1Send);display:inline" />
      <text
         sodipodi:linespacing="125%"
         id="text6369"
         y="159.4243"
         x="200.36353"
         style="font-size:8px;font-style:normal;font-variant:normal;font-weight:normal;font-stretch:normal;text-align:start;line-height:125%;letter-spacing:0px;word-spacing:0px;writing-mode:lr-tb;text-anchor:start;fill:#000000;fill-opacity:1;stroke:none;display:inline;font-family:Linux Biolinum O;-inkscape-font-specification:Linux Biolinum O"
         xml:space="preserve"><tspan
           y="159.4243"
           x="200.36353"
           id="tspan6371"
           sodipodi:role="line">t (sec)</tspan></text>
    </g>
    <text
       xml:space="preserve"
       style="font-size:14px;font-style:normal;font-variant:normal;font-weight:normal;font-stretch:normal;text-align:start;line-height:125%;letter-spacing:0px;word-spacing:0px;writing-mode:lr-tb;text-anchor:start;fill:#000000;fill-opacity:1;stroke:none;font-family:Linux Biolinum O;-inkscape-font-specification:Linux Biolinum O"
       x="34.625"
       y="16.4375"
       id="text4684"
       sodipodi:linespacing="125%"><tspan
         sodipodi:role="line"
         id="tspan4686"
         x="34.625"
         y="16.4375">52</tspan></text>
    <text
       xml:space="preserve"
       style="font-size:14px;font-style:normal;font-variant:normal;font-weight:normal;font-stretch:normal;text-align:start;line-height:125%;letter-spacing:0px;word-spacing:0px;writing-mode:lr-tb;text-anchor:start;fill:#000000;fill-opacity:1;stroke:none;font-family:Linux Biolinum O;-inkscape-font-specification:Linux Biolinum O"
       x="34.75"
       y="36.125"
       id="text4688"
       sodipodi:linespacing="125%"><tspan
         sodipodi:role="line"
         id="tspan4690"
         x="34.75"
         y="36.125">50</tspan></text>
    <text
       xml:space="preserve"
       style="font-size:14px;font-style:normal;font-variant:normal;font-weight:normal;font-stretch:normal;text-align:start;line-height:125%;letter-spacing:0px;word-spacing:0px;writing-mode:lr-tb;text-anchor:start;fill:#000000;fill-opacity:1;stroke:none;font-family:Linux Biolinum O;-inkscape-font-specification:Linux Biolinum O"
       x="34.75"
       y="56.8125"
       id="text4692"
       sodipodi:linespacing="125%"><tspan
         sodipodi:role="line"
         id="tspan4694"
         x="34.75"
         y="56.8125">48</tspan></text>
    <text
       xml:space="preserve"
       style="font-size:14px;font-style:normal;font-variant:normal;font-weight:normal;font-stretch:normal;text-align:start;line-height:125%;letter-spacing:0px;word-spacing:0px;writing-mode:lr-tb;text-anchor:start;fill:#000000;fill-opacity:1;stroke:none;font-family:Linux Biolinum O;-inkscape-font-specification:Linux Biolinum O"
       x="34.75"
       y="78"
       id="text4696"
       sodipodi:linespacing="125%"><tspan
         sodipodi:role="line"
         id="tspan4698"
         x="34.75"
         y="78">46</tspan></text>
    <text
       xml:space="preserve"
       style="font-size:14px;font-style:normal;font-variant:normal;font-weight:normal;font-stretch:normal;text-align:start;line-height:125%;letter-spacing:0px;word-spacing:0px;writing-mode:lr-tb;text-anchor:start;fill:#000000;fill-opacity:1;stroke:none;font-family:Linux Biolinum O;-inkscape-font-specification:Linux Biolinum O"
       x="34.5"
       y="97.8125"
       id="text4700"
       sodipodi:linespacing="125%"><tspan
         sodipodi:role="line"
         id="tspan4702"
         x="34.5"
         y="97.8125">44</tspan></text>
    <text
       xml:space="preserve"
       style="font-size:14px;font-style:normal;font-variant:normal;font-weight:normal;font-stretch:normal;text-align:start;line-height:125%;letter-spacing:0px;word-spacing:0px;writing-mode:lr-tb;text-anchor:start;fill:#000000;fill-opacity:1;stroke:none;font-family:Linux Biolinum O;-inkscape-font-specification:Linux Biolinum O"
       x="34.5"
       y="118.1875"
       id="text4704"
       sodipodi:linespacing="125%"><tspan
         sodipodi:role="line"
         id="tspan4706"
         x="34.5"
         y="118.1875">42</tspan></text>
    <text
       xml:space="preserve"
       style="font-size:14px;font-style:normal;font-variant:normal;font-weight:normal;font-stretch:normal;text-align:start;line-height:125%;letter-spacing:0px;word-spacing:0px;writing-mode:lr-tb;text-anchor:start;fill:#000000;fill-opacity:1;stroke:none;font-family:Linux Biolinum O;-inkscape-font-specification:Linux Biolinum O"
       x="34.625"
       y="139.0625"
       id="text4708"
       sodipodi:linespacing="125%"><tspan
         sodipodi:role="line"
         id="tspan4710"
         x="34.625"
         y="139.0625">40</tspan></text>
    <text
       xml:space="preserve"
       style="font-size:14px;font-style:normal;font-variant:normal;font-weight:normal;font-stretch:normal;text-align:start;line-height:125%;letter-spacing:0px;word-spacing:0px;writing-mode:lr-tb;text-anchor:start;fill:#000000;fill-opacity:1;stroke:none;font-family:Linux Biolinum O;-inkscape-font-specification:Linux Biolinum O"
       x="144.375"
       y="157.0625"
       id="text4712"
       sodipodi:linespacing="125%"><tspan
         sodipodi:role="line"
         id="tspan4714"
         x="144.375"
         y="157.0625">0.500</tspan></text>
    <text
       xml:space="preserve"
       style="font-size:14px;font-style:normal;font-variant:normal;font-weight:normal;font-stretch:normal;text-align:start;line-height:125%;letter-spacing:0px;word-spacing:0px;writing-mode:lr-tb;text-anchor:start;fill:#000000;fill-opacity:1;stroke:none;font-family:Linux Biolinum O;-inkscape-font-specification:Linux Biolinum O"
       x="242.375"
       y="157.4375"
       id="text4716"
       sodipodi:linespacing="125%"><tspan
         sodipodi:role="line"
         id="tspan4718"
         x="242.375"
         y="157.4375">1.000</tspan></text>
    <text
       xml:space="preserve"
       style="font-size:14px;font-style:normal;font-variant:normal;font-weight:normal;font-stretch:normal;text-align:start;line-height:125%;letter-spacing:0px;word-spacing:0px;writing-mode:lr-tb;text-anchor:start;fill:#000000;fill-opacity:1;stroke:none;font-family:Linux Biolinum O;-inkscape-font-specification:Linux Biolinum O"
       x="339.875"
       y="157"
       id="text4720"
       sodipodi:linespacing="125%"><tspan
         sodipodi:role="line"
         id="tspan4722"
         x="339.875"
         y="157">1.500</tspan></text>
  </g>
</svg>
