<?xml version="1.0" encoding="UTF-8" standalone="no"?>
<!-- Created with Inkscape (http://www.inkscape.org/) -->

<svg
   xmlns:dc="http://purl.org/dc/elements/1.1/"
   xmlns:cc="http://creativecommons.org/ns#"
   xmlns:rdf="http://www.w3.org/1999/02/22-rdf-syntax-ns#"
   xmlns:svg="http://www.w3.org/2000/svg"
   xmlns="http://www.w3.org/2000/svg"
   xmlns:xlink="http://www.w3.org/1999/xlink"
   xmlns:sodipodi="http://sodipodi.sourceforge.net/DTD/sodipodi-0.dtd"
   xmlns:inkscape="http://www.inkscape.org/namespaces/inkscape"
   id="svg3088"
   version="1.1"
   inkscape:version="0.48.3.1 r9886"
   width="368"
   height="165"
   sodipodi:docname="AgrammarofRapaNuiCURRENTDOC-img6.svg"
   inkscape:export-filename="/home/snordhoff/versioning/git/langsci/books/kieviet/6487292jhqxvd/figures/AgrammarofRapaNuiCURRENTDOC-img6v.png"
   inkscape:export-xdpi="260.10001"
   inkscape:export-ydpi="260.10001">
  <metadata
     id="metadata3094">
    <rdf:RDF>
      <cc:Work
         rdf:about="">
        <dc:format>image/svg+xml</dc:format>
        <dc:type
           rdf:resource="http://purl.org/dc/dcmitype/StillImage" />
        <dc:title></dc:title>
      </cc:Work>
    </rdf:RDF>
  </metadata>
  <defs
     id="defs3092">
    <marker
       inkscape:stockid="Arrow1Send"
       orient="auto"
       refY="0"
       refX="0"
       id="Arrow1Send"
       style="overflow:visible">
      <path
         inkscape:connector-curvature="0"
         id="path4093"
         d="M 0,0 5,-5 -12.5,0 5,5 0,0 z"
         style="fill-rule:evenodd;stroke:#000000;stroke-width:1pt"
         transform="matrix(-0.2,0,0,-0.2,-1.2,0)" />
    </marker>
    <marker
       inkscape:stockid="Arrow1Send"
       orient="auto"
       refY="0"
       refX="0"
       id="marker3113"
       style="overflow:visible">
      <path
         inkscape:connector-curvature="0"
         id="path3115"
         d="M 0,0 5,-5 -12.5,0 5,5 0,0 z"
         style="fill-rule:evenodd;stroke:#000000;stroke-width:1pt"
         transform="matrix(-0.2,0,0,-0.2,-1.2,0)" />
    </marker>
  </defs>
  <sodipodi:namedview
     pagecolor="#ffffff"
     bordercolor="#666666"
     borderopacity="1"
     objecttolerance="10"
     gridtolerance="10"
     guidetolerance="10"
     inkscape:pageopacity="0"
     inkscape:pageshadow="2"
     inkscape:window-width="1680"
     inkscape:window-height="1022"
     id="namedview3090"
     showgrid="false"
     inkscape:zoom="6.2376868"
     inkscape:cx="120.40144"
     inkscape:cy="70.037141"
     inkscape:window-x="1680"
     inkscape:window-y="0"
     inkscape:window-maximized="1"
     inkscape:current-layer="layer2" />
  <g
     inkscape:groupmode="layer"
     id="layer1"
     inkscape:label="orig"
     style="opacity:0.42857145;display:none">
    <image
       width="368"
       height="165"
       xlink:href="file:///home/snordhoff/versioning/git/langsci/books/kieviet/6487292jhqxvd/figures/AgrammarofRapaNuiCURRENTDOC-img6.png"
       id="image3096"
       x="0.20289879"
       y="0.097659796" />
  </g>
  <g
     inkscape:groupmode="layer"
     id="layer2"
     inkscape:label="path">
    <path
       style="fill:none;stroke:#000000;stroke-opacity:1"
       d="m 226.11847,90.329315 c -0.0789,-1.62574 0.90625,-1.921444 3.54639,-5.727358 0.22219,-0.320299 0.72759,1.418868 1.33844,5.406368 0.61085,3.9875 0.7347,8.936105 1.45087,10.311105 1.43922,2.76319 4.489,6.12905 5.74698,8.43889 0.44931,0.825 1.57069,2.9942 2.49195,4.82045 2.41547,4.78829 5.60856,9.00363 11.99056,12.23175 3.07806,1.55693 6.61538,2.80125 6.79176,3.6333 0.67937,3.20481 1.9895,1.2177 3.10078,1.48609 1.65367,0.39938 2.81331,0.84876 3.23104,1.93734 M 89.926999,120.28882 c -1.641043,2.65527 -3.612652,1.04111 -4.790617,-5.2805 -0.691785,-3.7125 -0.620114,-10.68966 -0.379571,-12.61466 M 187.78197,72.258325 c -0.34015,-3.736175 -0.41744,-1.101996 -0.52892,-4.942843 m 27.38446,53.442838 c -0.30464,0 -1.41108,-1.9125 -2.45875,-4.25 -1.04767,-2.3375 -1.97607,-6.99395 -2.35597,-10.53141 -1.10705,-10.30826 -2.50852,-11.978921 -7.48772,-10.739865 -5.05603,1.258174 -7.73025,0.155374 -8.71132,-5.25634 -0.47086,-2.59731 -1.51915,-6.29738 -3.49765,-8.22238 -1.551,-1.509066 -2.04343,-6.2 -2.34413,-9.5 m 83.45511,30.446795 c 0.25076,-2.2 2.10353,-10.840058 2.64771,-16.065058 1.14979,-11.03997 1.65176,-19.678257 3.33969,-26.778814 1.26552,-8.027927 2.17921,-11.357209 2.72071,-13.501332 1.19553,-4.733829 11.59831,-14.499242 15.74281,-15.409526 1.65991,-0.364577 2.57354,-2.203997 2.95836,-3.511568 1.55084,-5.269493 5.10647,-5.538816 10.96443,-3.660813 4.71228,1.510711 11.3111,-0.212792 17.23259,-1.857508 m -245.214244,43.414034 0.394306,5.42379 c 0.322928,4.44197 3.237956,29.786565 2.585447,30.439075 M 178.1372,93.183007 c 0.24064,-0.526742 -3.1607,-4.682328 -4.01805,-6.992772 -0.75693,-2.039819 -0.18661,-5.911194 -2.73876,-8.43191 -1.85908,-1.836187 -1.8028,-8.997375 -1.83971,-14.5 l -0.0698,-10.405291 c 0.0979,0.02397 -1.10686,-11.564112 -2.39751,-14.239477 -0.35391,-0.733608 -1.125,-3.812946 -2.5,-6.663184 -1.375,-2.850237 -2.5,-5.859456 -2.5,-6.687153 0,-0.827697 -0.45,-1.504903 -1,-1.504903 -0.55,0 -1,-0.444856 -1,-0.988569 0,-1.928128 -3.47668,-5.011431 -5.65081,-5.011431 -1.21348,0 -2.91626,0.709932 -3.78396,1.577626 -1.95115,1.951154 -6.56523,11.88629 -6.56523,14.136405 0,1.497594 -1.16236,6.42416 -4.19637,17.785969 -0.58748,2.2 -2.35863,6.707404 -3.93589,10.016454 -1.57726,3.30905 -2.86774,6.82614 -2.86774,7.81574 0,2.36562 -1.79592,5.684835 -5.65716,9.050757 -3.75954,4.382671 -3.64508,11.044856 -6.06334,15.857583 l -1.64913,-7.291506 -1.04358,-7.093822 -6.71321,0.0805 c -3.08273,0.03697 -5.13702,2.166197 -7.44218,-1.087442 l -0.96946,-1.368362 m -2.66017,-6.828251 c -0.54015,2.242134 1.86972,3.31509 1.93897,4.940987"
       id="path3166"
       inkscape:connector-curvature="0"
       sodipodi:nodetypes="cssssssssccsccccsssssccscssssccsccssscsssssssssssccccssccc" />
  </g>
  <g
     inkscape:groupmode="layer"
     id="layer3"
     inkscape:label="grid"
     style="display:inline">
    <text
       xml:space="preserve"
       style="font-size:8px;font-style:normal;font-variant:normal;font-weight:normal;font-stretch:normal;text-align:start;line-height:125%;letter-spacing:0px;word-spacing:0px;writing-mode:lr-tb;text-anchor:start;fill:#000000;fill-opacity:1;stroke:none;display:inline;font-family:Linux Biolinum O;-inkscape-font-specification:Linux Biolinum O"
       x="-95.83931"
       y="22.011503"
       id="text6373"
       sodipodi:linespacing="125%"
       transform="matrix(0,-1,1,0,0,0)"><tspan
         sodipodi:role="line"
         id="tspan6375"
         x="-95.83931"
         y="22.011503">semitones</tspan></text>
    <path
       style="fill:none;stroke:#000000;stroke-width:0.98490655px;stroke-linecap:butt;stroke-linejoin:miter;stroke-opacity:1;marker-end:url(#Arrow1Send);display:inline"
       d="m 55.475603,144.87763 282.380977,0"
       id="path4066"
       inkscape:connector-curvature="0" />
    <path
       style="fill:none;stroke:#000000;stroke-width:1px;stroke-linecap:butt;stroke-linejoin:miter;stroke-opacity:1;marker-end:url(#Arrow1Send);display:inline"
       d="M 50.354362,141.9127 50.408272,9.7307644"
       id="path4068"
       inkscape:connector-curvature="0" />
    <text
       xml:space="preserve"
       style="font-size:8px;font-style:normal;font-variant:normal;font-weight:normal;font-stretch:normal;text-align:start;line-height:125%;letter-spacing:0px;word-spacing:0px;writing-mode:lr-tb;text-anchor:start;fill:#000000;fill-opacity:1;stroke:none;display:inline;font-family:Linux Biolinum O;-inkscape-font-specification:Linux Biolinum O"
       x="200.04636"
       y="161.7674"
       id="text6369"
       sodipodi:linespacing="125%"><tspan
         sodipodi:role="line"
         id="tspan6371"
         x="200.04636"
         y="161.7674">t (sec)</tspan></text>
    <text
       xml:space="preserve"
       style="font-size:14px;font-style:normal;font-variant:normal;font-weight:normal;font-stretch:normal;text-align:start;line-height:125%;letter-spacing:0px;word-spacing:0px;writing-mode:lr-tb;text-anchor:start;fill:#000000;fill-opacity:1;stroke:none;font-family:Linux Biolinum O;-inkscape-font-specification:Linux Biolinum O"
       x="33.506008"
       y="14.543584"
       id="text3985"
       sodipodi:linespacing="125%"><tspan
         sodipodi:role="line"
         id="tspan3987"
         x="33.506008"
         y="14.543584">54</tspan></text>
    <text
       xml:space="preserve"
       style="font-size:14px;font-style:normal;font-variant:normal;font-weight:normal;font-stretch:normal;text-align:start;line-height:125%;letter-spacing:0px;word-spacing:0px;writing-mode:lr-tb;text-anchor:start;fill:#000000;fill-opacity:1;stroke:none;font-family:Linux Biolinum O;-inkscape-font-specification:Linux Biolinum O"
       x="33.345695"
       y="32.659275"
       id="text3989"
       sodipodi:linespacing="125%"><tspan
         sodipodi:role="line"
         id="tspan3991"
         x="33.345695"
         y="32.659275">52</tspan></text>
    <text
       xml:space="preserve"
       style="font-size:14px;font-style:normal;font-variant:normal;font-weight:normal;font-stretch:normal;text-align:start;line-height:125%;letter-spacing:0px;word-spacing:0px;writing-mode:lr-tb;text-anchor:start;fill:#000000;fill-opacity:1;stroke:none;font-family:Linux Biolinum O;-inkscape-font-specification:Linux Biolinum O"
       x="33.506008"
       y="49.572594"
       id="text3993"
       sodipodi:linespacing="125%"><tspan
         sodipodi:role="line"
         id="tspan3995"
         x="33.506008"
         y="49.572594">50</tspan></text>
    <text
       xml:space="preserve"
       style="font-size:14px;font-style:normal;font-variant:normal;font-weight:normal;font-stretch:normal;text-align:start;line-height:125%;letter-spacing:0px;word-spacing:0px;writing-mode:lr-tb;text-anchor:start;fill:#000000;fill-opacity:1;stroke:none;font-family:Linux Biolinum O;-inkscape-font-specification:Linux Biolinum O"
       x="33.345695"
       y="68.169235"
       id="text3997"
       sodipodi:linespacing="125%"><tspan
         sodipodi:role="line"
         id="tspan3999"
         x="33.345695"
         y="68.169235">48</tspan></text>
    <text
       xml:space="preserve"
       style="font-size:14px;font-style:normal;font-variant:normal;font-weight:normal;font-stretch:normal;text-align:start;line-height:125%;letter-spacing:0px;word-spacing:0px;writing-mode:lr-tb;text-anchor:start;fill:#000000;fill-opacity:1;stroke:none;font-family:Linux Biolinum O;-inkscape-font-specification:Linux Biolinum O"
       x="33.025063"
       y="85.082558"
       id="text4001"
       sodipodi:linespacing="125%"><tspan
         sodipodi:role="line"
         id="tspan4003"
         x="33.025063"
         y="85.082558">46</tspan></text>
    <text
       xml:space="preserve"
       style="font-size:14px;font-style:normal;font-variant:normal;font-weight:normal;font-stretch:normal;text-align:start;line-height:125%;letter-spacing:0px;word-spacing:0px;writing-mode:lr-tb;text-anchor:start;fill:#000000;fill-opacity:1;stroke:none;font-family:Linux Biolinum O;-inkscape-font-specification:Linux Biolinum O"
       x="33.025063"
       y="103.03793"
       id="text4005"
       sodipodi:linespacing="125%"><tspan
         sodipodi:role="line"
         id="tspan4007"
         x="33.025063"
         y="103.03793">44</tspan></text>
    <text
       xml:space="preserve"
       style="font-size:14px;font-style:normal;font-variant:normal;font-weight:normal;font-stretch:normal;text-align:start;line-height:125%;letter-spacing:0px;word-spacing:0px;writing-mode:lr-tb;text-anchor:start;fill:#000000;fill-opacity:1;stroke:none;font-family:Linux Biolinum O;-inkscape-font-specification:Linux Biolinum O"
       x="32.944904"
       y="119.87109"
       id="text4009"
       sodipodi:linespacing="125%"><tspan
         sodipodi:role="line"
         id="tspan4011"
         x="32.944904"
         y="119.87109">42</tspan></text>
    <text
       xml:space="preserve"
       style="font-size:14px;font-style:normal;font-variant:normal;font-weight:normal;font-stretch:normal;text-align:start;line-height:125%;letter-spacing:0px;word-spacing:0px;writing-mode:lr-tb;text-anchor:start;fill:#000000;fill-opacity:1;stroke:none;font-family:Linux Biolinum O;-inkscape-font-specification:Linux Biolinum O"
       x="33.025063"
       y="138.22725"
       id="text4013"
       sodipodi:linespacing="125%"><tspan
         sodipodi:role="line"
         id="tspan4015"
         x="33.025063"
         y="138.22725">40</tspan></text>
    <text
       xml:space="preserve"
       style="font-size:14px;font-style:normal;font-variant:normal;font-weight:normal;font-stretch:normal;text-align:start;line-height:125%;letter-spacing:0px;word-spacing:0px;writing-mode:lr-tb;text-anchor:start;fill:#000000;fill-opacity:1;stroke:none;font-family:Linux Biolinum O;-inkscape-font-specification:Linux Biolinum O"
       x="142.60094"
       y="158.26674"
       id="text4017"
       sodipodi:linespacing="125%"><tspan
         sodipodi:role="line"
         id="tspan4019"
         x="142.60094"
         y="158.26674">0.500</tspan></text>
    <text
       xml:space="preserve"
       style="font-size:14px;font-style:normal;font-variant:normal;font-weight:normal;font-stretch:normal;text-align:start;line-height:125%;letter-spacing:0px;word-spacing:0px;writing-mode:lr-tb;text-anchor:start;fill:#000000;fill-opacity:1;stroke:none;font-family:Linux Biolinum O;-inkscape-font-specification:Linux Biolinum O"
       x="239.67218"
       y="157.94611"
       id="text4021"
       sodipodi:linespacing="125%"><tspan
         sodipodi:role="line"
         id="tspan4023"
         x="239.67218"
         y="157.94611">1.000</tspan></text>
  </g>
</svg>
