<?xml version="1.0" encoding="UTF-8" standalone="no"?>
<!-- Created with Inkscape (http://www.inkscape.org/) -->

<svg
   xmlns:dc="http://purl.org/dc/elements/1.1/"
   xmlns:cc="http://creativecommons.org/ns#"
   xmlns:rdf="http://www.w3.org/1999/02/22-rdf-syntax-ns#"
   xmlns:svg="http://www.w3.org/2000/svg"
   xmlns="http://www.w3.org/2000/svg"
   xmlns:xlink="http://www.w3.org/1999/xlink"
   xmlns:sodipodi="http://sodipodi.sourceforge.net/DTD/sodipodi-0.dtd"
   xmlns:inkscape="http://www.inkscape.org/namespaces/inkscape"
   id="svg4335"
   version="1.1"
   inkscape:version="0.48.3.1 r9886"
   width="377"
   height="163"
   sodipodi:docname="AgrammarofRapaNuiCURRENTDOC-img4.svg">
  <metadata
     id="metadata4341">
    <rdf:RDF>
      <cc:Work
         rdf:about="">
        <dc:format>image/svg+xml</dc:format>
        <dc:type
           rdf:resource="http://purl.org/dc/dcmitype/StillImage" />
        <dc:title></dc:title>
      </cc:Work>
    </rdf:RDF>
  </metadata>
  <defs
     id="defs4339">
    <marker
       inkscape:stockid="Arrow1Send"
       orient="auto"
       refY="0"
       refX="0"
       id="Arrow1Send"
       style="overflow:visible">
      <path
         inkscape:connector-curvature="0"
         id="path4093"
         d="M 0,0 5,-5 -12.5,0 5,5 0,0 z"
         style="fill-rule:evenodd;stroke:#000000;stroke-width:1pt"
         transform="matrix(-0.2,0,0,-0.2,-1.2,0)" />
    </marker>
    <marker
       inkscape:stockid="Arrow1Send"
       orient="auto"
       refY="0"
       refX="0"
       id="marker4241"
       style="overflow:visible">
      <path
         inkscape:connector-curvature="0"
         id="path4243"
         d="M 0,0 5,-5 -12.5,0 5,5 0,0 z"
         style="fill-rule:evenodd;stroke:#000000;stroke-width:1pt"
         transform="matrix(-0.2,0,0,-0.2,-1.2,0)" />
    </marker>
  </defs>
  <sodipodi:namedview
     pagecolor="#ffffff"
     bordercolor="#666666"
     borderopacity="1"
     objecttolerance="10"
     gridtolerance="10"
     guidetolerance="10"
     inkscape:pageopacity="0"
     inkscape:pageshadow="2"
     inkscape:window-width="1680"
     inkscape:window-height="1022"
     id="namedview4337"
     showgrid="false"
     inkscape:zoom="2.1527076"
     inkscape:cx="238.601"
     inkscape:cy="31.017081"
     inkscape:window-x="1680"
     inkscape:window-y="0"
     inkscape:window-maximized="1"
     inkscape:current-layer="layer8" />
  <g
     inkscape:groupmode="layer"
     id="layer8"
     inkscape:label="orig"
     style="opacity:0.21052632">
    <image
       width="377"
       height="163"
       xlink:href="file:///home/snordhoff/versioning/git/langsci/books/kieviet/6487292jhqxvd/figures/AgrammarofRapaNuiCURRENTDOC-img4.png"
       id="image4343"
       x="0.37210572"
       y="0.36711621" />
  </g>
  <g
     inkscape:groupmode="layer"
     id="layer7"
     inkscape:label="path">
    <path
       style="fill:none;stroke:#000000;stroke-opacity:1"
       d="m 181.21951,99.959675 c -1.59313,0.843595 -2.42894,-0.987826 -2.86614,-3.073409 -0.3985,-1.900981 -1.82971,-4.701236 -1.78155,-6.741788 0.1716,-7.271274 -3.05046,-14.041346 -10.83781,-16.884126 -1.44101,-0.52604 -2.90565,-2.283917 -3.52048,-3.912777 -1.1773,-3.119032 -1.8015,-3.428911 -8.28857,-5.086077 -8.32553,-2.126809 -11.95969,-6.537823 -14.63449,-24.705836 -2.15382,-14.629362 -5.71579,-24.261032 -11.31126,-28.33973 -0.3548,-0.25862 -1.45379,-1.9856986 -1.83999,-3.2231986 -1.28874,-4.129583 -6.50079,-1.3821585 -8.21285,4.1310536 -0.6418,2.066722 -2.20702,6.007676 -3.47827,8.757676 -1.27124,2.75 -3.34561,8.375 -4.60971,12.5 -1.26409,4.125 -2.65991,7.65 -3.10182,7.833333 -0.44191,0.183334 -0.80347,0.705345 -0.80347,1.160025 0,1.546493 -6.416985,12.006642 -8.145653,13.211813 -1.505556,2.079482 -2.526283,2.794829 -3.048224,2.794829 -1.268787,0 -3.97948,2.607141 -3.806127,3.893388 0.233642,1.733574 -2.846179,2.395959 -4.053206,1.807487 -0.344262,-0.167841 -0.82763,-3.503969 -1.186614,-3.485868 M 248.96109,95.673487 c -0.80432,-1.925 -3.532,-6.466221 -4.11507,-6.466221 -0.58308,0 -1.89212,-1.408067 -3.61869,-3.058067 -1.96109,-1.87413 -2.88389,-2.262611 -4.78923,-2.627232 l -4.72755,-0.904703 m -19.77788,12.417521 c -1.7285,0.02837 -1.42032,-0.751867 -2.67302,-0.465344 m -0.11614,-1.277461 c -0.58742,-0.379528 -1.39107,-2.517784 -0.91435,-3.308138 m 0,0 c -2.65576,-11.859453 -9.3447,-11.213721 -9.7262,-17.955151 m 109.68209,17.697551 c -1.34994,0.866148 -2.99641,-10.421297 -3.50413,-17.237047 -0.51044,-6.852369 -2.13936,-13.006876 -2.53151,-13.61613 -1.38869,-2.157513 -3.08309,-9.12921 -3.09306,-11.594864 -0.009,-2.305293 -2.27625,-9.492754 -5.06789,-15.766976 -1.68132,-3.778794 -6.27798,-3.625117 -7.39649,-2.020199 -1.13359,1.626562 -3.07663,3.106164 -5.14816,9.241179 -2.9885,8.85072 -5.13189,13.416992 -7.38201,13.416992 -0.78755,0 -1.78031,-1.248806 -1.78031,-1.781544 m 37.97891,41.955478 c 0.63757,0.04457 -0.94817,-0.459512 -0.79789,-1.842026 M 196.45173,59.545936 c 0.95177,2.281162 2.54445,10.835529 1.98588,10.835529 M 331.26636,52.962188 c -0.26088,0.26088 -0.86843,-0.827826 -1.49205,-2.064498 -0.62362,-1.236671 -1.51652,-5.429555 -2.69392,-9.175582 -1.1774,-3.746026 -3.39664,-7.912159 -4.57679,-9.116133 -1.18015,-1.203973 -3.61618,-2.87441 -4.18591,-4.558497 -1.18673,-3.507928 -4.47907,-3.834984 -5.3846,-0.118043 -0.17367,0.712847 -0.44394,1.608362 -0.98653,1.943701"
       id="path4412"
       inkscape:connector-curvature="0"
       sodipodi:nodetypes="cssssssssssssscsssccsssccccccccsscssssccccccsssssc" />
  </g>
  <g
     inkscape:groupmode="layer"
     id="layer9"
     inkscape:label="grid"
     style="display:inline">
    <g
       transform="translate(0.23972206,0.63874731)"
       style="display:inline"
       id="g4221">
      <text
         transform="matrix(0,-1,1,0,0,0)"
         sodipodi:linespacing="125%"
         id="text6373"
         y="22.328672"
         x="-93.496216"
         style="font-size:8px;font-style:normal;font-variant:normal;font-weight:normal;font-stretch:normal;text-align:start;line-height:125%;letter-spacing:0px;word-spacing:0px;writing-mode:lr-tb;text-anchor:start;fill:#000000;fill-opacity:1;stroke:none;display:inline;font-family:Linux Biolinum O;-inkscape-font-specification:Linux Biolinum O"
         xml:space="preserve"><tspan
           y="22.328672"
           x="-93.496216"
           id="tspan6375"
           sodipodi:role="line">semitones</tspan></text>
      <path
         inkscape:connector-curvature="0"
         id="path4066"
         d="m 55.792769,142.53454 315.562171,0"
         style="fill:none;stroke:#000000;stroke-width:1.04116547px;stroke-linecap:butt;stroke-linejoin:miter;stroke-opacity:1;marker-end:url(#Arrow1Send);display:inline" />
      <path
         inkscape:connector-curvature="0"
         id="path4068"
         d="M 50.671528,139.56961 50.725438,7.3876697"
         style="fill:none;stroke:#000000;stroke-width:1px;stroke-linecap:butt;stroke-linejoin:miter;stroke-opacity:1;marker-end:url(#Arrow1Send);display:inline" />
      <text
         sodipodi:linespacing="125%"
         id="text6369"
         y="159.4243"
         x="200.36353"
         style="font-size:8px;font-style:normal;font-variant:normal;font-weight:normal;font-stretch:normal;text-align:start;line-height:125%;letter-spacing:0px;word-spacing:0px;writing-mode:lr-tb;text-anchor:start;fill:#000000;fill-opacity:1;stroke:none;display:inline;font-family:Linux Biolinum O;-inkscape-font-specification:Linux Biolinum O"
         xml:space="preserve"><tspan
           y="159.4243"
           x="200.36353"
           id="tspan6371"
           sodipodi:role="line">t (sec)</tspan></text>
    </g>
    <text
       xml:space="preserve"
       style="font-size:14px;font-style:normal;font-variant:normal;font-weight:normal;font-stretch:normal;text-align:start;line-height:125%;letter-spacing:0px;word-spacing:0px;writing-mode:lr-tb;text-anchor:start;fill:#000000;fill-opacity:1;stroke:none;font-family:Linux Biolinum O;-inkscape-font-specification:Linux Biolinum O"
       x="33.330116"
       y="42.512199"
       id="text4432"
       sodipodi:linespacing="125%"><tspan
         sodipodi:role="line"
         id="tspan4434"
         x="33.330116"
         y="42.512199">48</tspan></text>
    <text
       xml:space="preserve"
       style="font-size:14px;font-style:normal;font-variant:normal;font-weight:normal;font-stretch:normal;text-align:start;line-height:125%;letter-spacing:0px;word-spacing:0px;writing-mode:lr-tb;text-anchor:start;fill:#000000;fill-opacity:1;stroke:none;font-family:Linux Biolinum O;-inkscape-font-specification:Linux Biolinum O"
       x="33.330116"
       y="75.377785"
       id="text4436"
       sodipodi:linespacing="125%"><tspan
         sodipodi:role="line"
         id="tspan4438"
         x="33.330116"
         y="75.377785">42</tspan></text>
    <text
       xml:space="preserve"
       style="font-size:14px;font-style:normal;font-variant:normal;font-weight:normal;font-stretch:normal;text-align:start;line-height:125%;letter-spacing:0px;word-spacing:0px;writing-mode:lr-tb;text-anchor:start;fill:#000000;fill-opacity:1;stroke:none;font-family:Linux Biolinum O;-inkscape-font-specification:Linux Biolinum O"
       x="34.143047"
       y="108.24337"
       id="text4440"
       sodipodi:linespacing="125%"><tspan
         sodipodi:role="line"
         id="tspan4442"
         x="34.143047"
         y="108.24337">36</tspan></text>
    <text
       xml:space="preserve"
       style="font-size:14px;font-style:normal;font-variant:normal;font-weight:normal;font-stretch:normal;text-align:start;line-height:125%;letter-spacing:0px;word-spacing:0px;writing-mode:lr-tb;text-anchor:start;fill:#000000;fill-opacity:1;stroke:none;font-family:Linux Biolinum O;-inkscape-font-specification:Linux Biolinum O"
       x="33.620453"
       y="141.16704"
       id="text4444"
       sodipodi:linespacing="125%"><tspan
         sodipodi:role="line"
         id="tspan4446"
         x="33.620453"
         y="141.16704">30</tspan></text>
    <text
       xml:space="preserve"
       style="font-size:14px;font-style:normal;font-variant:normal;font-weight:normal;font-stretch:normal;text-align:start;line-height:125%;letter-spacing:0px;word-spacing:0px;writing-mode:lr-tb;text-anchor:start;fill:#000000;fill-opacity:1;stroke:none;font-family:Linux Biolinum O;-inkscape-font-specification:Linux Biolinum O"
       x="141.74011"
       y="155.97397"
       id="text4448"
       sodipodi:linespacing="125%"><tspan
         sodipodi:role="line"
         id="tspan4450"
         x="141.74011"
         y="155.97397">0.500</tspan></text>
    <text
       xml:space="preserve"
       style="font-size:14px;font-style:normal;font-variant:normal;font-weight:normal;font-stretch:normal;text-align:start;line-height:125%;letter-spacing:0px;word-spacing:0px;writing-mode:lr-tb;text-anchor:start;fill:#000000;fill-opacity:1;stroke:none;font-family:Linux Biolinum O;-inkscape-font-specification:Linux Biolinum O"
       x="238.711"
       y="155.97395"
       id="text4452"
       sodipodi:linespacing="125%"><tspan
         sodipodi:role="line"
         id="tspan4454"
         x="238.711"
         y="155.97395">1.000</tspan></text>
    <text
       xml:space="preserve"
       style="font-size:14px;font-style:normal;font-variant:normal;font-weight:normal;font-stretch:normal;text-align:start;line-height:125%;letter-spacing:0px;word-spacing:0px;writing-mode:lr-tb;text-anchor:start;fill:#000000;fill-opacity:1;stroke:none;font-family:Linux Biolinum O;-inkscape-font-specification:Linux Biolinum O"
       x="335.68188"
       y="156.03203"
       id="text4456"
       sodipodi:linespacing="125%"><tspan
         sodipodi:role="line"
         id="tspan4458"
         x="335.68188"
         y="156.03203">1.500</tspan></text>
  </g>
</svg>
