<?xml version="1.0" encoding="UTF-8" standalone="no"?>
<!-- Created with Inkscape (http://www.inkscape.org/) -->

<svg
   xmlns:dc="http://purl.org/dc/elements/1.1/"
   xmlns:cc="http://creativecommons.org/ns#"
   xmlns:rdf="http://www.w3.org/1999/02/22-rdf-syntax-ns#"
   xmlns:svg="http://www.w3.org/2000/svg"
   xmlns="http://www.w3.org/2000/svg"
   xmlns:xlink="http://www.w3.org/1999/xlink"
   xmlns:sodipodi="http://sodipodi.sourceforge.net/DTD/sodipodi-0.dtd"
   xmlns:inkscape="http://www.inkscape.org/namespaces/inkscape"
   id="svg4098"
   version="1.1"
   inkscape:version="0.48.3.1 r9886"
   width="377"
   height="163"
   sodipodi:docname="AgrammarofRapaNuiCURRENTDOC-img5.svg">
  <metadata
     id="metadata4104">
    <rdf:RDF>
      <cc:Work
         rdf:about="">
        <dc:format>image/svg+xml</dc:format>
        <dc:type
           rdf:resource="http://purl.org/dc/dcmitype/StillImage" />
        <dc:title></dc:title>
      </cc:Work>
    </rdf:RDF>
  </metadata>
  <defs
     id="defs4102">
    <marker
       inkscape:stockid="Arrow1Send"
       orient="auto"
       refY="0"
       refX="0"
       id="Arrow1Send"
       style="overflow:visible">
      <path
         inkscape:connector-curvature="0"
         id="path4093"
         d="M 0,0 5,-5 -12.5,0 5,5 0,0 z"
         style="fill-rule:evenodd;stroke:#000000;stroke-width:1pt"
         transform="matrix(-0.2,0,0,-0.2,-1.2,0)" />
    </marker>
    <marker
       inkscape:stockid="Arrow1Send"
       orient="auto"
       refY="0"
       refX="0"
       id="marker4037"
       style="overflow:visible">
      <path
         inkscape:connector-curvature="0"
         id="path4039"
         d="M 0,0 5,-5 -12.5,0 5,5 0,0 z"
         style="fill-rule:evenodd;stroke:#000000;stroke-width:1pt"
         transform="matrix(-0.2,0,0,-0.2,-1.2,0)" />
    </marker>
  </defs>
  <sodipodi:namedview
     pagecolor="#ffffff"
     bordercolor="#666666"
     borderopacity="1"
     objecttolerance="10"
     gridtolerance="10"
     guidetolerance="10"
     inkscape:pageopacity="0"
     inkscape:pageshadow="2"
     inkscape:window-width="1680"
     inkscape:window-height="1022"
     id="namedview4100"
     showgrid="false"
     inkscape:zoom="2.1527076"
     inkscape:cx="321.18298"
     inkscape:cy="16.810227"
     inkscape:window-x="1680"
     inkscape:window-y="0"
     inkscape:window-maximized="1"
     inkscape:current-layer="layer6" />
  <g
     inkscape:groupmode="layer"
     id="layer4"
     inkscape:label="orig"
     style="opacity:0.36090226;display:none">
    <image
       width="377"
       height="163"
       xlink:href="file:///home/snordhoff/versioning/git/langsci/books/kieviet/6487292jhqxvd/figures/AgrammarofRapaNuiCURRENTDOC-img5.png"
       id="image4106"
       x="0.043624677"
       y="-0.289828" />
  </g>
  <g
     inkscape:groupmode="layer"
     id="layer5"
     inkscape:label="path">
    <path
       style="fill:none;stroke:#000000;stroke-opacity:1"
       d="m 180.54093,100.03767 c -0.85418,0.008 -2.08783,-1.474488 -2.75,-3.305678 -0.66049,-1.82655 -1.20089,-4.991 -1.20089,-7.03212 0,-7.21092 -4.44433,-13.93144 -11.01201,-16.65186 -1.41725,-0.58704 -3.07985,-2.40005 -3.69468,-4.02891 -1.1773,-3.11903 -1.39503,-3.25471 -7.88211,-4.91188 -8.32553,-2.12681 -11.26367,-7.05904 -14.92483,-25.054235 -3.00798,-14.784664 -6.85524,-24.06702 -11.60159,-27.991333 -0.33837,-0.279767 -0.9312,-1.4050318 -1.31739,-2.6425338 -1.28874,-4.129583 -7.35772,-5.1248159 -7.69025,3.4923228 -6.53346,9.755087 -11.03579,38.922276 -23.407668,44.864088 -0.0039,0.0404 -2.935875,1.578485 -4.514663,5.054708 -0.564965,1.243956 -2.11862,3.073033 -3.704805,2.504283 -0.6875,-0.24651 -0.935323,-1.449475 -1.186614,-2.61487 L 85.136156,59.320726 M 248.91914,95.442962 c -0.27662,-0.536405 -1.41096,-2.043479 -1.76465,-2.88997 -0.80432,-1.925001 -1.93945,-3.5 -2.52252,-3.5 -0.58308,0 -2.47278,-1.35 -4.19935,-3 -1.96109,-1.87413 -1.52044,-3.337838 -3.4537,-3.498238 l -6.00501,-0.498229 m -22.79734,9.746467 c -2.63824,-8.253899 1.07412,-4.531668 -6.98798,-16.223008 -4.19352,-2.229242 -2.6798,-6.314494 -2.94384,-7.276992 -0.58921,-2.147814 -1.39416,-7.568923 -1.50252,-9.264971 m 14.2488,35.061885 c -0.77463,-0.07825 -2.13038,0.313029 -2.81446,-2.296914 m 64.42878,-41.500005 c 0.0132,-1.505299 0.15916,-1.540256 1.04406,-0.25 m 36.25356,41.345942 c -2.41623,-2.776591 -4.34972,-7.630487 -5.81086,-19.238207 -0.85794,-6.81575 -1.88073,-12.89075 -2.27288,-13.5 -1.38869,-2.15751 -3.19922,-8.142081 -3.20919,-10.607735 -0.009,-2.305293 -1.86678,-8.73391 -4.37109,-15.128246 -1.46886,-3.750465 -4.2441,-6.164345 -7.2223,-4.807386 -1.80416,0.822032 -3.07663,0.667374 -5.14816,6.802389 -1.5134,4.482092 -3.39581,12.870743 -4.46701,14.383243 -2.19416,3.098101 -4.81928,3.64544 -4.79613,1 m 58.34851,2.356618 c -0.62362,-1.236671 -3.25851,-7.171548 -4.43591,-10.917575 -1.1774,-3.746026 -2.64178,-7.912159 -3.82193,-9.116133 -1.18015,-1.203973 -3.73609,-3.126028 -4.36011,-4.790762 -0.99972,-2.667023 -3.07034,-4.429611 -4.97814,-1.976168 -0.45038,0.579196 -1.48913,2.885823 -2.03172,3.221162"
       id="path4154"
       inkscape:connector-curvature="0"
       sodipodi:nodetypes="cssssssssccsssccsssscccsccccccsscssssccssssc" />
    <text
       xml:space="preserve"
       style="font-size:14px;font-style:normal;font-variant:normal;font-weight:normal;font-stretch:normal;text-align:start;line-height:125%;letter-spacing:0px;word-spacing:0px;writing-mode:lr-tb;text-anchor:start;fill:#000000;fill-opacity:1;stroke:none;font-family:Linux Biolinum O;-inkscape-font-specification:Linux Biolinum O"
       x="32.807522"
       y="41.583138"
       id="text4193"
       sodipodi:linespacing="125%"><tspan
         sodipodi:role="line"
         id="tspan4195"
         x="32.807522"
         y="41.583138">48</tspan></text>
    <text
       xml:space="preserve"
       style="font-size:14px;font-style:normal;font-variant:normal;font-weight:normal;font-stretch:normal;text-align:start;line-height:125%;letter-spacing:0px;word-spacing:0px;writing-mode:lr-tb;text-anchor:start;fill:#000000;fill-opacity:1;stroke:none;font-family:Linux Biolinum O;-inkscape-font-specification:Linux Biolinum O"
       x="33.039787"
       y="74.564857"
       id="text4197"
       sodipodi:linespacing="125%"><tspan
         sodipodi:role="line"
         id="tspan4199"
         x="33.039787"
         y="74.564857">42</tspan></text>
    <text
       xml:space="preserve"
       style="font-size:14px;font-style:normal;font-variant:normal;font-weight:normal;font-stretch:normal;text-align:start;line-height:125%;letter-spacing:0px;word-spacing:0px;writing-mode:lr-tb;text-anchor:start;fill:#000000;fill-opacity:1;stroke:none;font-family:Linux Biolinum O;-inkscape-font-specification:Linux Biolinum O"
       x="33.388187"
       y="107.54658"
       id="text4201"
       sodipodi:linespacing="125%"><tspan
         sodipodi:role="line"
         id="tspan4203"
         x="33.388187"
         y="107.54658">36</tspan></text>
    <text
       xml:space="preserve"
       style="font-size:14px;font-style:normal;font-variant:normal;font-weight:normal;font-stretch:normal;text-align:start;line-height:125%;letter-spacing:0px;word-spacing:0px;writing-mode:lr-tb;text-anchor:start;fill:#000000;fill-opacity:1;stroke:none;font-family:Linux Biolinum O;-inkscape-font-specification:Linux Biolinum O"
       x="33.213985"
       y="140.52829"
       id="text4205"
       sodipodi:linespacing="125%"><tspan
         sodipodi:role="line"
         id="tspan4207"
         x="33.213985"
         y="140.52829">30</tspan></text>
    <text
       xml:space="preserve"
       style="font-size:14px;font-style:normal;font-variant:normal;font-weight:normal;font-stretch:normal;text-align:start;line-height:125%;letter-spacing:0px;word-spacing:0px;writing-mode:lr-tb;text-anchor:start;fill:#000000;fill-opacity:1;stroke:none;font-family:Linux Biolinum O;-inkscape-font-specification:Linux Biolinum O"
       x="141.39171"
       y="155.74168"
       id="text4209"
       sodipodi:linespacing="125%"><tspan
         sodipodi:role="line"
         id="tspan4211"
         x="141.39171"
         y="155.74168">0.500</tspan></text>
    <text
       xml:space="preserve"
       style="font-size:14px;font-style:normal;font-variant:normal;font-weight:normal;font-stretch:normal;text-align:start;line-height:125%;letter-spacing:0px;word-spacing:0px;writing-mode:lr-tb;text-anchor:start;fill:#000000;fill-opacity:1;stroke:none;font-family:Linux Biolinum O;-inkscape-font-specification:Linux Biolinum O"
       x="238.5368"
       y="155.45137"
       id="text4213"
       sodipodi:linespacing="125%"><tspan
         sodipodi:role="line"
         id="tspan4215"
         x="238.5368"
         y="155.45137">1.000</tspan></text>
    <text
       xml:space="preserve"
       style="font-size:14px;font-style:normal;font-variant:normal;font-weight:normal;font-stretch:normal;text-align:start;line-height:125%;letter-spacing:0px;word-spacing:0px;writing-mode:lr-tb;text-anchor:start;fill:#000000;fill-opacity:1;stroke:none;font-family:Linux Biolinum O;-inkscape-font-specification:Linux Biolinum O"
       x="335.50772"
       y="156.0901"
       id="text4217"
       sodipodi:linespacing="125%"><tspan
         sodipodi:role="line"
         id="tspan4219"
         x="335.50772"
         y="156.0901">1.500</tspan></text>
  </g>
  <g
     inkscape:groupmode="layer"
     id="layer6"
     inkscape:label="grid"
     style="display:inline">
    <text
       xml:space="preserve"
       style="font-size:8px;font-style:normal;font-variant:normal;font-weight:normal;font-stretch:normal;text-align:start;line-height:125%;letter-spacing:0px;word-spacing:0px;writing-mode:lr-tb;text-anchor:start;fill:#000000;fill-opacity:1;stroke:none;display:inline;font-family:Linux Biolinum O;-inkscape-font-specification:Linux Biolinum O"
       x="-93.496216"
       y="22.328672"
       id="text6373"
       sodipodi:linespacing="125%"
       transform="matrix(0,-1,1,0,0,0)"><tspan
         sodipodi:role="line"
         id="tspan6375"
         x="-93.496216"
         y="22.328672">semitones</tspan></text>
    <path
       style="fill:none;stroke:#000000;stroke-width:1.04116547px;stroke-linecap:butt;stroke-linejoin:miter;stroke-opacity:1;marker-end:url(#Arrow1Send);display:inline"
       d="m 55.792769,142.53454 315.562171,0"
       id="path4066"
       inkscape:connector-curvature="0" />
    <path
       style="fill:none;stroke:#000000;stroke-width:1px;stroke-linecap:butt;stroke-linejoin:miter;stroke-opacity:1;marker-end:url(#Arrow1Send);display:inline"
       d="M 50.671528,139.56961 50.725438,7.3876697"
       id="path4068"
       inkscape:connector-curvature="0" />
    <text
       xml:space="preserve"
       style="font-size:8px;font-style:normal;font-variant:normal;font-weight:normal;font-stretch:normal;text-align:start;line-height:125%;letter-spacing:0px;word-spacing:0px;writing-mode:lr-tb;text-anchor:start;fill:#000000;fill-opacity:1;stroke:none;display:inline;font-family:Linux Biolinum O;-inkscape-font-specification:Linux Biolinum O"
       x="200.36353"
       y="159.4243"
       id="text6369"
       sodipodi:linespacing="125%"><tspan
         sodipodi:role="line"
         id="tspan6371"
         x="200.36353"
         y="159.4243">t (sec)</tspan></text>
  </g>
</svg>
