<?xml version="1.0" encoding="UTF-8" standalone="no"?>
<!-- Created with Inkscape (http://www.inkscape.org/) -->

<svg
   xmlns:dc="http://purl.org/dc/elements/1.1/"
   xmlns:cc="http://creativecommons.org/ns#"
   xmlns:rdf="http://www.w3.org/1999/02/22-rdf-syntax-ns#"
   xmlns:svg="http://www.w3.org/2000/svg"
   xmlns="http://www.w3.org/2000/svg"
   xmlns:xlink="http://www.w3.org/1999/xlink"
   xmlns:sodipodi="http://sodipodi.sourceforge.net/DTD/sodipodi-0.dtd"
   xmlns:inkscape="http://www.inkscape.org/namespaces/inkscape"
   id="svg3999"
   version="1.1"
   inkscape:version="0.48.3.1 r9886"
   width="326"
   height="166"
   sodipodi:docname="AgrammarofRapaNuiCURRENTDOC-img2.svg">
  <metadata
     id="metadata4005">
    <rdf:RDF>
      <cc:Work
         rdf:about="">
        <dc:format>image/svg+xml</dc:format>
        <dc:type
           rdf:resource="http://purl.org/dc/dcmitype/StillImage" />
        <dc:title></dc:title>
      </cc:Work>
    </rdf:RDF>
  </metadata>
  <defs
     id="defs4003">
    <marker
       inkscape:stockid="Arrow1Send"
       orient="auto"
       refY="0"
       refX="0"
       id="Arrow1Send"
       style="overflow:visible">
      <path
         inkscape:connector-curvature="0"
         id="path4093"
         d="M 0,0 5,-5 -12.5,0 5,5 0,0 z"
         style="fill-rule:evenodd;stroke:#000000;stroke-width:1pt"
         transform="matrix(-0.2,0,0,-0.2,-1.2,0)" />
    </marker>
    <marker
       inkscape:stockid="Arrow1Send"
       orient="auto"
       refY="0"
       refX="0"
       id="marker4033"
       style="overflow:visible">
      <path
         inkscape:connector-curvature="0"
         id="path4035"
         d="M 0,0 5,-5 -12.5,0 5,5 0,0 z"
         style="fill-rule:evenodd;stroke:#000000;stroke-width:1pt"
         transform="matrix(-0.2,0,0,-0.2,-1.2,0)" />
    </marker>
    <marker
       inkscape:stockid="Arrow1Send"
       orient="auto"
       refY="0"
       refX="0"
       id="Arrow1Send-3"
       style="overflow:visible">
      <path
         inkscape:connector-curvature="0"
         id="path4093-6"
         d="M 0,0 5,-5 -12.5,0 5,5 0,0 z"
         style="fill-rule:evenodd;stroke:#000000;stroke-width:1pt"
         transform="matrix(-0.2,0,0,-0.2,-1.2,0)" />
    </marker>
    <marker
       inkscape:stockid="Arrow1Send"
       orient="auto"
       refY="0"
       refX="0"
       id="marker4080"
       style="overflow:visible">
      <path
         inkscape:connector-curvature="0"
         id="path4082"
         d="M 0,0 5,-5 -12.5,0 5,5 0,0 z"
         style="fill-rule:evenodd;stroke:#000000;stroke-width:1pt"
         transform="matrix(-0.2,0,0,-0.2,-1.2,0)" />
    </marker>
  </defs>
  <sodipodi:namedview
     pagecolor="#ffffff"
     bordercolor="#666666"
     borderopacity="1"
     objecttolerance="10"
     gridtolerance="10"
     guidetolerance="10"
     inkscape:pageopacity="0"
     inkscape:pageshadow="2"
     inkscape:window-width="1680"
     inkscape:window-height="1022"
     id="namedview4001"
     showgrid="false"
     inkscape:zoom="1.7603288"
     inkscape:cx="184.60803"
     inkscape:cy="220.50064"
     inkscape:window-x="1680"
     inkscape:window-y="0"
     inkscape:window-maximized="1"
     inkscape:current-layer="layer2" />
  <g
     inkscape:groupmode="layer"
     id="layer1"
     inkscape:label="orig"
     style="opacity:0.26877471;display:none">
    <image
       width="326"
       height="166"
       xlink:href="file:///home/snordhoff/versioning/git/langsci/books/kieviet/6487292jhqxvd/figures/AgrammarofRapaNuiCURRENTDOC-img2.png"
       id="image4007"
       x="0.037716847"
       y="0.060951628" />
  </g>
  <g
     inkscape:groupmode="layer"
     id="layer2"
     inkscape:label="opath"
     style="display:inline">
    <path
       style="fill:none;stroke:#000000;stroke-opacity:1;display:inline"
       d="m 307.61646,111.779 c -1.85139,-0.8504 -4.9779,3.80168 -6.25821,8.16305 -3.43862,11.71362 -5.34237,14.29424 -6.42515,14.29424 -0.65781,0 -2.76298,-1.08221 -4.67816,-2.40492 -3.93017,-2.71435 -5.86721,-4.86868 -9.37765,-10.42957 -3.04755,-4.82763 -14.19498,-16.16551 -15.89397,-16.16551 -0.69602,0 -2.29008,0.71765 -3.54235,1.59477 -2.78431,1.95021 -5.80648,1.3087 -9.72977,-2.06532 -1.61611,-1.38985 -3.29411,-2.52756 -3.72888,-2.52823 -1.34293,-0.002 -6.93226,-4.334856 -9.99915,-7.751216 -2.00825,-2.23709 -3.81394,-3.25 -5.79372,-3.25 -5.75782,0 -10.23188,-2.73492 -13.91664,-8.50701 -1.925,-3.015464 -3.8375,-5.484988 -4.25,-5.487828 -0.4125,-0.0028 -0.75,-0.473978 -0.75,-1.046975 0,-0.572998 -0.9,-2.00785 -2,-3.188562 -1.1,-1.180711 -2,-2.546422 -2,-3.034912 m -15,32.035853 c 0,1.32404 -2.40096,2.2293 -3.6784,1.38691 -1.01168,-0.66714 -2.49459,-5.157476 -1.70323,-5.157476 m -1.10638,-1.98059 c -0.80151,-1.29688 -3.46347,-21.423191 -3.50752,-26.51941 -0.0442,-5.109864 -1.61154,-9.43428 -6.2716,-17.303576 -2.05308,-3.466967 -3.73287,-6.573134 -3.73287,-6.902592 0,-1.472389 -12.4799,-13.299018 -14.79052,-13.878946 -2.80615,-0.704298 -6.20948,2.75263 -6.20948,5.331153 0,0.789836 -1.77776,3.982591 -3.95058,7.095013 -2.17282,3.112421 -4.462,7.908948 -5.08706,10.658948 -0.62507,2.75 -1.54731,6.381949 -2.04942,8.070998 -0.50212,1.689049 -0.91294,3.746803 -0.91294,4.572787 0,3.222751 -6.049,13.921418 -8.50342,15.039725 -1.37312,0.62564 -2.49658,1.46651 -2.49658,1.8686 0,1.42179 -5.12495,1.99133 -8.86252,0.98491 -3.19766,-0.86104 -4.15296,-1.79998 -6.13347,-6.028455 -1.29024,-2.754711 -2.60646,-5.079001 -2.92495,-5.165089 -3.27591,-2.427521 -8.12114,-1.471386 -11.58826,-2.847212 -4.023866,-3.086228 -6.091242,-2.632663 -10.686133,-0.823906 -2.483691,0.713785 -5.104669,4.001706 -7.304669,5.347622 -2.2,1.345915 -4.761983,2.454522 -5.693296,2.46357 -2.606311,0.02532 -4.821483,-3.98308 -4.673091,-8.456056 l 0.133613,-4.027494"
       id="path4192"
       inkscape:connector-curvature="0"
       sodipodi:nodetypes="cssssssscssscssccsccssssssssssssscccsssc" />
  </g>
  <g
     inkscape:groupmode="layer"
     id="layer3"
     inkscape:label="grid"
     style="display:inline">
    <text
       transform="matrix(0,-1,1,0,0,0)"
       sodipodi:linespacing="125%"
       id="text6373"
       y="23.43574"
       x="-94.584923"
       style="font-size:8px;font-style:normal;font-variant:normal;font-weight:normal;font-stretch:normal;text-align:start;line-height:125%;letter-spacing:0px;word-spacing:0px;writing-mode:lr-tb;text-anchor:start;fill:#000000;fill-opacity:1;stroke:none;display:inline;font-family:Linux Biolinum O;-inkscape-font-specification:Linux Biolinum O"
       xml:space="preserve"><tspan
         y="23.43574"
         x="-94.584923"
         id="tspan6375"
         sodipodi:role="line">semitones</tspan></text>
    <path
       inkscape:connector-curvature="0"
       id="path4066"
       d="m 56.899836,143.62326 263.769314,0"
       style="fill:none;stroke:#000000;stroke-width:0.95189577px;stroke-linecap:butt;stroke-linejoin:miter;stroke-opacity:1;marker-end:url(#Arrow1Send);display:inline" />
    <path
       inkscape:connector-curvature="0"
       id="path4068"
       d="M 51.778596,140.65833 51.832496,8.4763787"
       style="fill:none;stroke:#000000;stroke-width:1px;stroke-linecap:butt;stroke-linejoin:miter;stroke-opacity:1;marker-end:url(#Arrow1Send);display:inline" />
    <text
       sodipodi:linespacing="125%"
       id="text6369"
       y="157.43854"
       x="185.91299"
       style="font-size:8px;font-style:normal;font-variant:normal;font-weight:normal;font-stretch:normal;text-align:start;line-height:125%;letter-spacing:0px;word-spacing:0px;writing-mode:lr-tb;text-anchor:start;fill:#000000;fill-opacity:1;stroke:none;display:inline;font-family:Linux Biolinum O;-inkscape-font-specification:Linux Biolinum O"
       xml:space="preserve"><tspan
         y="157.43854"
         x="185.91299"
         id="tspan6371"
         sodipodi:role="line">t (sec)</tspan></text>
    <text
       xml:space="preserve"
       style="font-size:14px;font-style:normal;font-variant:normal;font-weight:normal;font-stretch:normal;text-align:start;line-height:125%;letter-spacing:0px;word-spacing:0px;writing-mode:lr-tb;text-anchor:start;fill:#000000;fill-opacity:1;stroke:none;font-family:Linux Biolinum O;-inkscape-font-specification:Linux Biolinum O"
       x="34.084541"
       y="15.672969"
       id="text4115"
       sodipodi:linespacing="125%"><tspan
         sodipodi:role="line"
         id="tspan4117"
         x="34.084541"
         y="15.672969">54</tspan></text>
    <text
       xml:space="preserve"
       style="font-size:14px;font-style:normal;font-variant:normal;font-weight:normal;font-stretch:normal;text-align:start;line-height:125%;letter-spacing:0px;word-spacing:0px;writing-mode:lr-tb;text-anchor:start;fill:#000000;fill-opacity:1;stroke:none;font-family:Linux Biolinum O;-inkscape-font-specification:Linux Biolinum O"
       x="34.226559"
       y="33.638363"
       id="text4119"
       sodipodi:linespacing="125%"><tspan
         sodipodi:role="line"
         id="tspan4121"
         x="34.226559"
         y="33.638363">52</tspan></text>
    <text
       xml:space="preserve"
       style="font-size:14px;font-style:normal;font-variant:normal;font-weight:normal;font-stretch:normal;text-align:start;line-height:125%;letter-spacing:0px;word-spacing:0px;writing-mode:lr-tb;text-anchor:start;fill:#000000;fill-opacity:1;stroke:none;font-family:Linux Biolinum O;-inkscape-font-specification:Linux Biolinum O"
       x="33.942524"
       y="51.532749"
       id="text4123"
       sodipodi:linespacing="125%"><tspan
         sodipodi:role="line"
         id="tspan4125"
         x="33.942524"
         y="51.532749">50</tspan></text>
    <text
       xml:space="preserve"
       style="font-size:14px;font-style:normal;font-variant:normal;font-weight:normal;font-stretch:normal;text-align:start;line-height:125%;letter-spacing:0px;word-spacing:0px;writing-mode:lr-tb;text-anchor:start;fill:#000000;fill-opacity:1;stroke:none;font-family:Linux Biolinum O;-inkscape-font-specification:Linux Biolinum O"
       x="33.800503"
       y="69.853188"
       id="text4127"
       sodipodi:linespacing="125%"><tspan
         sodipodi:role="line"
         id="tspan4129"
         x="33.800503"
         y="69.853188">48</tspan></text>
    <text
       xml:space="preserve"
       style="font-size:14px;font-style:normal;font-variant:normal;font-weight:normal;font-stretch:normal;text-align:start;line-height:125%;letter-spacing:0px;word-spacing:0px;writing-mode:lr-tb;text-anchor:start;fill:#000000;fill-opacity:1;stroke:none;font-family:Linux Biolinum O;-inkscape-font-specification:Linux Biolinum O"
       x="33.800503"
       y="86.469406"
       id="text4131"
       sodipodi:linespacing="125%"><tspan
         sodipodi:role="line"
         id="tspan4133"
         x="33.800503"
         y="86.469406">46</tspan></text>
    <text
       xml:space="preserve"
       style="font-size:14px;font-style:normal;font-variant:normal;font-weight:normal;font-stretch:normal;text-align:start;line-height:125%;letter-spacing:0px;word-spacing:0px;writing-mode:lr-tb;text-anchor:start;fill:#000000;fill-opacity:1;stroke:none;font-family:Linux Biolinum O;-inkscape-font-specification:Linux Biolinum O"
       x="33.871513"
       y="104.64783"
       id="text4135"
       sodipodi:linespacing="125%"><tspan
         sodipodi:role="line"
         id="tspan4137"
         x="33.871513"
         y="104.64783">44</tspan></text>
    <text
       xml:space="preserve"
       style="font-size:14px;font-style:normal;font-variant:normal;font-weight:normal;font-stretch:normal;text-align:start;line-height:125%;letter-spacing:0px;word-spacing:0px;writing-mode:lr-tb;text-anchor:start;fill:#000000;fill-opacity:1;stroke:none;font-family:Linux Biolinum O;-inkscape-font-specification:Linux Biolinum O"
       x="33.800503"
       y="122.96827"
       id="text4139"
       sodipodi:linespacing="125%"><tspan
         sodipodi:role="line"
         id="tspan4141"
         x="33.800503"
         y="122.96827">42</tspan></text>
    <text
       xml:space="preserve"
       style="font-size:14px;font-style:normal;font-variant:normal;font-weight:normal;font-stretch:normal;text-align:start;line-height:125%;letter-spacing:0px;word-spacing:0px;writing-mode:lr-tb;text-anchor:start;fill:#000000;fill-opacity:1;stroke:none;font-family:Linux Biolinum O;-inkscape-font-specification:Linux Biolinum O"
       x="33.800503"
       y="140.08154"
       id="text4143"
       sodipodi:linespacing="125%"><tspan
         sodipodi:role="line"
         id="tspan4145"
         x="33.800503"
         y="140.08154">40</tspan></text>
    <text
       xml:space="preserve"
       style="font-size:14px;font-style:normal;font-variant:normal;font-weight:normal;font-stretch:normal;text-align:start;line-height:125%;letter-spacing:0px;word-spacing:0px;writing-mode:lr-tb;text-anchor:start;fill:#000000;fill-opacity:1;stroke:none;font-family:Linux Biolinum O;-inkscape-font-specification:Linux Biolinum O"
       x="136.33817"
       y="156.62674"
       id="text4147"
       sodipodi:linespacing="125%"><tspan
         sodipodi:role="line"
         id="tspan4149"
         x="136.33817"
         y="156.62674">0.500</tspan></text>
    <text
       xml:space="preserve"
       style="font-size:14px;font-style:normal;font-variant:normal;font-weight:normal;font-stretch:normal;text-align:start;line-height:125%;letter-spacing:0px;word-spacing:0px;writing-mode:lr-tb;text-anchor:start;fill:#000000;fill-opacity:1;stroke:none;font-family:Linux Biolinum O;-inkscape-font-specification:Linux Biolinum O"
       x="236.10646"
       y="156.9818"
       id="text4151"
       sodipodi:linespacing="125%"><tspan
         sodipodi:role="line"
         id="tspan4153"
         x="236.10646"
         y="156.9818">1.000</tspan></text>
  </g>
</svg>
