<?xml version="1.0" encoding="UTF-8" standalone="no"?>
<!-- Created with Inkscape (http://www.inkscape.org/) -->

<svg
   xmlns:dc="http://purl.org/dc/elements/1.1/"
   xmlns:cc="http://creativecommons.org/ns#"
   xmlns:rdf="http://www.w3.org/1999/02/22-rdf-syntax-ns#"
   xmlns:svg="http://www.w3.org/2000/svg"
   xmlns="http://www.w3.org/2000/svg"
   xmlns:xlink="http://www.w3.org/1999/xlink"
   xmlns:sodipodi="http://sodipodi.sourceforge.net/DTD/sodipodi-0.dtd"
   xmlns:inkscape="http://www.inkscape.org/namespaces/inkscape"
   id="svg4557"
   version="1.1"
   inkscape:version="0.48.3.1 r9886"
   width="529"
   height="165"
   sodipodi:docname="AgrammarofRapaNuiCURRENTDOC-img3.svg"
   inkscape:export-filename="/home/snordhoff/versioning/git/langsci/books/kieviet/6487292jhqxvd/figures/AgrammarofRapaNuiCURRENTDOC-img3v.png"
   inkscape:export-xdpi="260.10001"
   inkscape:export-ydpi="260.10001">
  <metadata
     id="metadata4563">
    <rdf:RDF>
      <cc:Work
         rdf:about="">
        <dc:format>image/svg+xml</dc:format>
        <dc:type
           rdf:resource="http://purl.org/dc/dcmitype/StillImage" />
        <dc:title></dc:title>
      </cc:Work>
    </rdf:RDF>
  </metadata>
  <defs
     id="defs4561">
    <marker
       inkscape:stockid="Arrow1Send"
       orient="auto"
       refY="0"
       refX="0"
       id="Arrow1Send"
       style="overflow:visible">
      <path
         inkscape:connector-curvature="0"
         id="path4093"
         d="M 0,0 5,-5 -12.5,0 5,5 0,0 z"
         style="fill-rule:evenodd;stroke:#000000;stroke-width:1pt"
         transform="matrix(-0.2,0,0,-0.2,-1.2,0)" />
    </marker>
    <marker
       inkscape:stockid="Arrow1Send"
       orient="auto"
       refY="0"
       refX="0"
       id="marker4495"
       style="overflow:visible">
      <path
         inkscape:connector-curvature="0"
         id="path4497"
         d="M 0,0 5,-5 -12.5,0 5,5 0,0 z"
         style="fill-rule:evenodd;stroke:#000000;stroke-width:1pt"
         transform="matrix(-0.2,0,0,-0.2,-1.2,0)" />
    </marker>
  </defs>
  <sodipodi:namedview
     pagecolor="#ffffff"
     bordercolor="#666666"
     borderopacity="1"
     objecttolerance="10"
     gridtolerance="10"
     guidetolerance="10"
     inkscape:pageopacity="0"
     inkscape:pageshadow="2"
     inkscape:window-width="1680"
     inkscape:window-height="1022"
     id="namedview4559"
     showgrid="false"
     inkscape:zoom="1.8462719"
     inkscape:cx="386.1564"
     inkscape:cy="64.879564"
     inkscape:window-x="1680"
     inkscape:window-y="0"
     inkscape:window-maximized="1"
     inkscape:current-layer="g4221" />
  <g
     inkscape:groupmode="layer"
     id="layer10"
     inkscape:label="orig"
     style="opacity:0.32015812;display:none">
    <image
       width="529"
       height="165"
       xlink:href="file:///home/snordhoff/versioning/git/langsci/books/kieviet/6487292jhqxvd/figures/AgrammarofRapaNuiCURRENTDOC-img3.png"
       id="image4565"
       x="-0.23573492"
       y="-0.22620527" />
  </g>
  <g
     inkscape:groupmode="layer"
     id="layer11"
     inkscape:label="path"
     style="display:inline">
    <path
       style="fill:none;stroke:#000000;stroke-opacity:1"
       d="m 459.89552,119.18916 c 0,-0.52498 1.04888,-0.26725 2.33085,0.57273 m 0,0 c 2.29717,1.75364 2.77818,3.40992 3.5,-1.70598 0.26419,-1.87242 1.18346,-4.10128 1.20095,-5.16223 0.0175,-1.06095 0.67831,-2.78311 1.46848,-3.82702 1.38071,-1.82409 1.47572,-1.79531 2.4392,0.73885 0.5514,1.45027 2.04079,5.58602 1.67404,9.19113 -0.66728,6.55921 1.12946,9.34403 4.09197,8.6814 m -298.62654,-5.64234 0,-2e-5 c -0.0434,-1.06095 0.18276,-3.31095 -0.31656,-5 -0.49931,-1.68905 -1.42209,-5.9625 -2.40168,-9.2625 -0.97959,-3.3 -2.62979,-7.22074 -3.55009,-8.595746 -0.9203,-1.375 -2.27213,-5.664869 -4.06108,-9.462946 -1.92434,-4.085543 -2.84419,-7.000295 -3.13239,-7.80217 -0.4695,-1.306345 -8.5261,-9.41922 -8.63233,-13.635715 -0.16919,-6.715583 -2.69099,-13.863991 -4.32045,-13.506113 -1.66968,0.366711 -9.50704,2.339266 -11.64226,4.355926 -0.70751,0.66822 -3.21056,1.95568 -4.74317,2.86101 -1.73062,1.02231 -3.12248,3.49867 -4.30076,6.53504 -0.43351,2.359444 -2.33858,5.771493 -2.97818,7.026692 -1.23956,0.0089 -13.78263,13.733476 -17.90425,16.823213 -1.65089,1.237575 -3.98117,1.836944 -6.46033,4.731367 -6.343516,3.448852 -4.550795,7.094702 -5.538038,12.177892 -2.314599,11.91758 -2.278636,20.16992 -5.008861,1.96506 m 400.891339,9.45326 c -3.65076,-0.13785 -5.35308,-1.47553 -8.27141,-7.347 -3.27431,-19.528001 3.35567,-59.030582 -7.81706,-70.271141 m -91.26793,74.092741 c -0.2179,0.21791 -1.12079,-3.56517 -2.00641,-8.40684 -0.88562,-4.84167 -2.26405,-11.579298 -2.2519,-15.012872 0.0252,-7.134174 -0.18399,-12.300156 -6.69727,-11.508832 -1.3047,0.158513 -3.22027,0.523422 -4.07003,-0.326328 -1.60571,-1.60572 -4.08266,-9.303527 -3.25874,-10.127445 m 80.11857,44.172447 c 1.53056,-6.44307 -1.54458,-11.74805 -3.27396,-16.75632 -0.84938,-3.82044 -8.71916,-3.227058 -8.75821,-0.978285 -0.0649,3.736295 -4.63448,2.916935 -8.9786,-1.920087 -1.15848,-1.28992 -2.886,-3.24531 -4.42405,-4.34531 -1.53806,-1.1 -6.37155,-5.190012 -9.80489,-8.620812 -5.87888,-5.87452 -7.07774,-6.248658 -8.19875,-12.617003 -0.65468,-3.7192 -1.4535,-14.120324 -1.65812,-17.145324 M 92.185156,109.34028 c -1.196309,-1.39718 -3.877338,-6.5479 -4.830433,-13.707482 -1.541677,-11.58096 -1.706696,-13.74895 -0.992126,-13.03438 M 211.00657,79.2424 c 0.20058,0.20057 -0.88678,1.732889 -1.94826,3.873249 -2.77923,5.60403 -6.58865,14.780599 -6.64153,15.415824 -0.0685,0.822613 -2.16166,3.282167 -2.87534,4.071477 -0.39523,0.4371 -1.25604,-1.26624 -1.24762,-2.22874 m -0.72528,-1.249222 c -0.22647,0.22647 -0.1114,-2.776866 -1.55817,-6.344298 -1.44677,-3.567422 -2.20584,-7.515845 -1.97937,-7.742315 m 17.86452,-6.864767 c -0.72881,-0.48847 0.40614,-1.51746 0.90254,-2.4725 1.27371,-2.45057 2.8098,-8.578455 4.19535,-16.736425 0.65389,-3.85 1.57658,-7.9 2.04619,-10.513405 0.24986,-1.259325 1.02206,-3.849345 1.71177,-7.269015 m 0,0 c 2.2283,-12.885417 2.77586,-20.545009 7.91541,-22.290269 1.13743,-0.386241 2.02862,-1.867331 2.13299,-2.654252 0.62243,-4.692747 4.66044,-3.561603 3.52011,2.476939 -0.22288,1.180243 2.39518,4.696745 2.88817,7.558504 1.91277,11.103418 2.83331,14.795844 4.59082,18.223024 2.78994,5.44045 3.09665,10.120674 3.09665,14.674634 0,4.42043 2.81524,14.392155 4.36275,15.453085 0.52889,0.36258 3.28709,-3.581191 4.02289,-4.316991 2.7959,-2.755615 6.0614,-2.298606 6.4933,-2.557594 9.95664,-0.58345 2.98076,5.168925 8.56988,12.266077 l 1.14317,1.816266 c 0.80499,1.2375 2.65512,1.311905 3.76032,1.277005"
       id="path3093"
       inkscape:connector-curvature="0"
       sodipodi:nodetypes="cccssssscccsssssssssccscscccccsssscccsssssccsccssscccccsscccsssssscccccc" />
  </g>
  <g
     inkscape:groupmode="layer"
     id="layer12"
     inkscape:label="grid"
     style="display:inline">
    <g
       transform="translate(-0.0275366,2.2143367)"
       style="display:inline"
       id="g4221">
      <text
         transform="matrix(0,-1,1,0,0,0)"
         sodipodi:linespacing="125%"
         id="text6373"
         y="22.328672"
         x="-93.496216"
         style="font-size:8px;font-style:normal;font-variant:normal;font-weight:normal;font-stretch:normal;text-align:start;line-height:125%;letter-spacing:0px;word-spacing:0px;writing-mode:lr-tb;text-anchor:start;fill:#000000;fill-opacity:1;stroke:none;display:inline;font-family:Linux Biolinum O;-inkscape-font-specification:Linux Biolinum O"
         xml:space="preserve"><tspan
           y="22.328672"
           x="-93.496216"
           id="tspan6375"
           sodipodi:role="line">semitones</tspan></text>
      <path
         inkscape:connector-curvature="0"
         id="path4066"
         d="m 55.792769,142.53454 469.197801,0"
         style="fill:none;stroke:#000000;stroke-width:1.26956594px;stroke-linecap:butt;stroke-linejoin:miter;stroke-opacity:1;marker-end:url(#Arrow1Send);display:inline" />
      <path
         inkscape:connector-curvature="0"
         id="path4068"
         d="M 50.671528,139.56961 50.725438,7.3876697"
         style="fill:none;stroke:#000000;stroke-width:1px;stroke-linecap:butt;stroke-linejoin:miter;stroke-opacity:1;marker-end:url(#Arrow1Send);display:inline" />
      <text
         sodipodi:linespacing="125%"
         id="text6369"
         y="159.75827"
         x="267.74496"
         style="font-size:8px;font-style:normal;font-variant:normal;font-weight:normal;font-stretch:normal;text-align:start;line-height:125%;letter-spacing:0px;word-spacing:0px;writing-mode:lr-tb;text-anchor:start;fill:#000000;fill-opacity:1;stroke:none;display:inline;font-family:Linux Biolinum O;-inkscape-font-specification:Linux Biolinum O"
         xml:space="preserve"><tspan
           y="159.75827"
           x="267.74496"
           id="tspan6371"
           sodipodi:role="line">t (sec)</tspan></text>
      <text
         xml:space="preserve"
         style="font-size:14px;font-style:normal;font-variant:normal;font-weight:normal;font-stretch:normal;text-align:start;line-height:125%;letter-spacing:0px;word-spacing:0px;writing-mode:lr-tb;text-anchor:start;fill:#000000;fill-opacity:1;stroke:none;font-family:Linux Biolinum O;-inkscape-font-specification:Linux Biolinum O"
         x="33.040073"
         y="47.616268"
         id="text4616"
         sodipodi:linespacing="125%"><tspan
           sodipodi:role="line"
           id="tspan4618"
           x="33.040073"
           y="47.616268">48</tspan></text>
      <text
         xml:space="preserve"
         style="font-size:14px;font-style:normal;font-variant:normal;font-weight:normal;font-stretch:normal;text-align:start;line-height:125%;letter-spacing:0px;word-spacing:0px;writing-mode:lr-tb;text-anchor:start;fill:#000000;fill-opacity:1;stroke:none;font-family:Linux Biolinum O;-inkscape-font-specification:Linux Biolinum O"
         x="32.92485"
         y="93.764679"
         id="text4620"
         sodipodi:linespacing="125%"><tspan
           sodipodi:role="line"
           id="tspan4622"
           x="32.92485"
           y="93.764679">42</tspan></text>
      <text
         xml:space="preserve"
         style="font-size:14px;font-style:normal;font-variant:normal;font-weight:normal;font-stretch:normal;text-align:start;line-height:125%;letter-spacing:0px;word-spacing:0px;writing-mode:lr-tb;text-anchor:start;fill:#000000;fill-opacity:1;stroke:none;font-family:Linux Biolinum O;-inkscape-font-specification:Linux Biolinum O"
         x="32.867233"
         y="138.588"
         id="text4624"
         sodipodi:linespacing="125%"><tspan
           sodipodi:role="line"
           id="tspan4626"
           x="32.867233"
           y="138.588">36</tspan></text>
      <text
         xml:space="preserve"
         style="font-size:14px;font-style:normal;font-variant:normal;font-weight:normal;font-stretch:normal;text-align:start;line-height:125%;letter-spacing:0px;word-spacing:0px;writing-mode:lr-tb;text-anchor:start;fill:#000000;fill-opacity:1;stroke:none;font-family:Linux Biolinum O;-inkscape-font-specification:Linux Biolinum O"
         x="108.2257"
         y="155.2959"
         id="text4628"
         sodipodi:linespacing="125%"><tspan
           sodipodi:role="line"
           id="tspan4630"
           x="108.2257"
           y="155.2959">5.000</tspan></text>
      <text
         xml:space="preserve"
         style="font-size:14px;font-style:normal;font-variant:normal;font-weight:normal;font-stretch:normal;text-align:start;line-height:125%;letter-spacing:0px;word-spacing:0px;writing-mode:lr-tb;text-anchor:start;fill:#000000;fill-opacity:1;stroke:none;font-family:Linux Biolinum O;-inkscape-font-specification:Linux Biolinum O"
         x="205.07401"
         y="155.2959"
         id="text4632"
         sodipodi:linespacing="125%"><tspan
           sodipodi:role="line"
           id="tspan4634"
           x="205.07401"
           y="155.2959">5.500</tspan></text>
      <text
         xml:space="preserve"
         style="font-size:14px;font-style:normal;font-variant:normal;font-weight:normal;font-stretch:normal;text-align:start;line-height:125%;letter-spacing:0px;word-spacing:0px;writing-mode:lr-tb;text-anchor:start;fill:#000000;fill-opacity:1;stroke:none;font-family:Linux Biolinum O;-inkscape-font-specification:Linux Biolinum O"
         x="301.51901"
         y="155.87204"
         id="text4636"
         sodipodi:linespacing="125%"><tspan
           sodipodi:role="line"
           id="tspan4638"
           x="301.51901"
           y="155.87204">6.000</tspan></text>
      <text
         xml:space="preserve"
         style="font-size:14px;font-style:normal;font-variant:normal;font-weight:normal;font-stretch:normal;text-align:start;line-height:125%;letter-spacing:0px;word-spacing:0px;writing-mode:lr-tb;text-anchor:start;fill:#000000;fill-opacity:1;stroke:none;font-family:Linux Biolinum O;-inkscape-font-specification:Linux Biolinum O"
         x="398.71301"
         y="155.29591"
         id="text4640"
         sodipodi:linespacing="125%"><tspan
           sodipodi:role="line"
           id="tspan4642"
           x="398.71301"
           y="155.29591">6.500</tspan></text>
      <text
         xml:space="preserve"
         style="font-size:14px;font-style:normal;font-variant:normal;font-weight:normal;font-stretch:normal;text-align:start;line-height:125%;letter-spacing:0px;word-spacing:0px;writing-mode:lr-tb;text-anchor:start;fill:#000000;fill-opacity:1;stroke:none;font-family:Linux Biolinum O;-inkscape-font-specification:Linux Biolinum O"
         x="496.42548"
         y="155.41113"
         id="text4644"
         sodipodi:linespacing="125%"><tspan
           sodipodi:role="line"
           id="tspan4646"
           x="496.42548"
           y="155.41113">7.000</tspan></text>
    </g>
  </g>
</svg>
