<?xml version="1.0" encoding="UTF-8" standalone="no"?>
<!-- Created with Inkscape (http://www.inkscape.org/) -->

<svg
   xmlns:dc="http://purl.org/dc/elements/1.1/"
   xmlns:cc="http://creativecommons.org/ns#"
   xmlns:rdf="http://www.w3.org/1999/02/22-rdf-syntax-ns#"
   xmlns:svg="http://www.w3.org/2000/svg"
   xmlns="http://www.w3.org/2000/svg"
   xmlns:xlink="http://www.w3.org/1999/xlink"
   xmlns:sodipodi="http://sodipodi.sourceforge.net/DTD/sodipodi-0.dtd"
   xmlns:inkscape="http://www.inkscape.org/namespaces/inkscape"
   id="svg3242"
   version="1.1"
   inkscape:version="0.48.3.1 r9886"
   width="273.34497"
   height="155.59766"
   sodipodi:docname="AgrammarofRapaNuiCURRENTDOC-img10.png">
  <metadata
     id="metadata3248">
    <rdf:RDF>
      <cc:Work
         rdf:about="">
        <dc:format>image/svg+xml</dc:format>
        <dc:type
           rdf:resource="http://purl.org/dc/dcmitype/StillImage" />
        <dc:title></dc:title>
      </cc:Work>
    </rdf:RDF>
  </metadata>
  <defs
     id="defs3246">
    <marker
       inkscape:stockid="Arrow1Send"
       orient="auto"
       refY="0"
       refX="0"
       id="Arrow1Send"
       style="overflow:visible">
      <path
         inkscape:connector-curvature="0"
         id="path4093"
         d="M 0,0 5,-5 -12.5,0 5,5 0,0 z"
         style="fill-rule:evenodd;stroke:#000000;stroke-width:1pt"
         transform="matrix(-0.2,0,0,-0.2,-1.2,0)" />
    </marker>
    <marker
       inkscape:stockid="Arrow1Send"
       orient="auto"
       refY="0"
       refX="0"
       id="marker6464"
       style="overflow:visible">
      <path
         inkscape:connector-curvature="0"
         id="path6466"
         d="M 0,0 5,-5 -12.5,0 5,5 0,0 z"
         style="fill-rule:evenodd;stroke:#000000;stroke-width:1pt"
         transform="matrix(-0.2,0,0,-0.2,-1.2,0)" />
    </marker>
    <marker
       inkscape:stockid="Arrow1Send"
       orient="auto"
       refY="0"
       refX="0"
       id="Arrow1Send-7"
       style="overflow:visible">
      <path
         inkscape:connector-curvature="0"
         id="path4093-5"
         d="M 0,0 5,-5 -12.5,0 5,5 0,0 z"
         style="fill-rule:evenodd;stroke:#000000;stroke-width:1pt"
         transform="matrix(-0.2,0,0,-0.2,-1.2,0)" />
    </marker>
    <marker
       inkscape:stockid="Arrow1Send"
       orient="auto"
       refY="0"
       refX="0"
       id="marker6600"
       style="overflow:visible">
      <path
         inkscape:connector-curvature="0"
         id="path6602"
         d="M 0,0 5,-5 -12.5,0 5,5 0,0 z"
         style="fill-rule:evenodd;stroke:#000000;stroke-width:1pt"
         transform="matrix(-0.2,0,0,-0.2,-1.2,0)" />
    </marker>
  </defs>
  <sodipodi:namedview
     pagecolor="#ffffff"
     bordercolor="#666666"
     borderopacity="1"
     objecttolerance="10"
     gridtolerance="10"
     guidetolerance="10"
     inkscape:pageopacity="0"
     inkscape:pageshadow="2"
     inkscape:window-width="640"
     inkscape:window-height="480"
     id="namedview3244"
     showgrid="false"
     fit-margin-top="0"
     fit-margin-left="0"
     fit-margin-right="0"
     fit-margin-bottom="0"
     inkscape:zoom="1.0590606"
     inkscape:cx="69.368947"
     inkscape:cy="127.33103"
     inkscape:window-x="2593"
     inkscape:window-y="157"
     inkscape:window-maximized="0"
     inkscape:current-layer="layer4" />
  <g
     inkscape:groupmode="layer"
     id="layer4"
     inkscape:label="orig"
     style="display:none"
     transform="translate(-17.104469,2.1132011)">
    <image
       width="279.80002"
       height="155.82979"
       xlink:href="file:///home/snordhoff/versioning/git/langsci/books/kieviet/6487292jhqxvd/figures/AgrammarofRapaNuiCURRENTDOC-img10.png"
       id="image3250"
       x="17.234352"
       y="0.40387979" />
  </g>
  <g
     inkscape:groupmode="layer"
     id="layer5"
     inkscape:label="path"
     style="display:inline"
     transform="translate(-17.104469,2.1132011)">
    <path
       style="fill:none;stroke:#000000;stroke-opacity:1"
       d="m 271.37401,105.28441 c -0.7125,0.022 -2.41358,-1.07808 -3.78016,-2.44466 -1.36659,-1.36659 -4.57309,-3.650636 -7.12555,-5.075661 -4.11287,-2.296193 -5.10488,-2.474125 -8.71984,-1.564036 -7.48694,1.884887 -15.76484,-1.564393 -19.31683,-8.049043 -1.15979,-2.117365 -1.69004,-3.590999 -1.17833,-3.274744 m -14.28262,15.584544 c -0.25365,0.0363 -1.83414,-2.717805 -3.78184,-6.943386 -1.72566,-3.743865 -4.20124,-7.605818 -5.5013,-8.582117 -3.19669,-2.400615 -7.17298,-10.998984 -7.91286,-17.110856 -0.3329,-2.75 -0.80954,-6.8 -1.05919,-9 l -0.42092,-3.709195 M 75.169463,69.155529 c -1.925,0.5437 -3.656692,1.212112 -4.730851,0.167697 -1.863013,-1.471131 -2.264639,-2.336619 -2.01253,-2.588727 M 168.78576,45.286205 c -0.8707,-1.408826 -4.72698,-21.184403 -4.34662,-22.976429 -0.42615,-1.886056 -0.79871,-2.873395 -1.16307,-4.099742 -1.61575,-5.438227 -3.53841,-9.1097066 -5.38484,-10.282837 -2.20855,-1.403202 -6.21926,0.089791 -7.70652,2.868764 -0.88991,1.662808 -1.48597,2.327264 -2.50279,4.080579 -2.90458,6.293265 -4.50519,11.724003 -4.56049,14.518909 -0.0264,1.335951 -0.90906,4.004002 -1.96144,5.929002 -3.98266,7.285102 -4.7696,9.675292 -5.18848,15.758783 -0.16543,2.40251 -0.29641,4.644728 -0.8896,7.168397 -0.85117,3.145368 -2.7158,6.838105 -4.91989,10.083772 -3.39373,4.997497 -4.58057,5.997404 -7.75,6.529338 -2.05841,0.345469 -5.30333,1.107562 -7.21094,1.693541 -3.41979,1.050491 -3.54196,0.983147 -8.72126,-4.807733 -2.88909,-3.230231 -5.75299,-7.235061 -6.36421,-8.899623 -1.846894,-5.029684 -2.526312,-5.949745 -5.817155,-7.877541 -4.077466,-2.388604 -5.548372,-1.731339 -7.925909,3.541637 -2.411797,5.34896 -6.620315,9.346142 -11.203083,10.640507"
       id="path6396"
       inkscape:connector-curvature="0"
       sodipodi:nodetypes="cssssccssssccccccssscssscsssssssc" />
  </g>
  <g
     inkscape:groupmode="layer"
     id="layer6"
     inkscape:label="grid"
     style="display:inline"
     transform="translate(-17.104469,2.1132011)">
    <text
       xml:space="preserve"
       style="font-size:8px;font-style:normal;font-variant:normal;font-weight:normal;font-stretch:normal;text-align:start;line-height:125%;letter-spacing:0px;word-spacing:0px;writing-mode:lr-tb;text-anchor:start;fill:#000000;fill-opacity:1;stroke:none;display:inline;font-family:Linux Biolinum O;-inkscape-font-specification:Linux Biolinum O"
       x="191.71286"
       y="151.85246"
       id="text6369"
       sodipodi:linespacing="125%"><tspan
         sodipodi:role="line"
         id="tspan6371"
         x="191.71286"
         y="151.85246">t (sec)</tspan></text>
    <text
       xml:space="preserve"
       style="font-size:8px;font-style:normal;font-variant:normal;font-weight:normal;font-stretch:normal;text-align:start;line-height:125%;letter-spacing:0px;word-spacing:0px;writing-mode:lr-tb;text-anchor:start;fill:#000000;fill-opacity:1;stroke:none;display:inline;font-family:Linux Biolinum O;-inkscape-font-specification:Linux Biolinum O"
       x="-85.751595"
       y="22.288469"
       id="text6373"
       sodipodi:linespacing="125%"
       transform="matrix(0,-1,1,0,0,0)"><tspan
         sodipodi:role="line"
         id="tspan6375"
         x="-85.751595"
         y="22.288469">semitones</tspan></text>
    <path
       style="fill:none;stroke:#000000;stroke-width:0.89489466px;stroke-linecap:butt;stroke-linejoin:miter;stroke-opacity:1;marker-end:url(#Arrow1Send)"
       d="m 55.752572,134.78992 233.125218,0"
       id="path4066"
       inkscape:connector-curvature="0" />
    <path
       style="fill:none;stroke:#000000;stroke-width:1px;stroke-linecap:butt;stroke-linejoin:miter;stroke-opacity:1;marker-end:url(#Arrow1Send)"
       d="M 50.63133,131.82499 50.68524,-0.35695122"
       id="path4068"
       inkscape:connector-curvature="0" />
    <text
       xml:space="preserve"
       style="font-size:14px;font-style:normal;font-variant:normal;font-weight:normal;font-stretch:normal;text-align:start;line-height:125%;letter-spacing:0px;word-spacing:0px;writing-mode:lr-tb;text-anchor:start;fill:#000000;fill-opacity:1;stroke:none;font-family:Linux Biolinum O;-inkscape-font-specification:Linux Biolinum O"
       x="130.16167"
       y="147.78951"
       id="text6635"
       sodipodi:linespacing="125%"><tspan
         sodipodi:role="line"
         id="tspan6637"
         x="130.16167"
         y="147.78951">3.500</tspan></text>
    <text
       xml:space="preserve"
       style="font-size:14px;font-style:normal;font-variant:normal;font-weight:normal;font-stretch:normal;text-align:start;line-height:125%;letter-spacing:0px;word-spacing:0px;writing-mode:lr-tb;text-anchor:start;fill:#000000;fill-opacity:1;stroke:none;font-family:Linux Biolinum O;-inkscape-font-specification:Linux Biolinum O"
       x="229.27083"
       y="147.78951"
       id="text6639"
       sodipodi:linespacing="125%"><tspan
         sodipodi:role="line"
         id="tspan6641"
         x="229.27083"
         y="147.78951">4.000</tspan></text>
    <text
       xml:space="preserve"
       style="font-size:14px;font-style:normal;font-variant:normal;font-weight:normal;font-stretch:normal;text-align:start;line-height:125%;letter-spacing:0px;word-spacing:0px;writing-mode:lr-tb;text-anchor:start;fill:#000000;fill-opacity:1;stroke:none;font-family:Linux Biolinum O;-inkscape-font-specification:Linux Biolinum O"
       x="32.346336"
       y="22.544497"
       id="text6643"
       sodipodi:linespacing="125%"><tspan
         sodipodi:role="line"
         id="tspan6645"
         x="32.346336"
         y="22.544497">54</tspan></text>
    <text
       xml:space="preserve"
       style="font-size:14px;font-style:normal;font-variant:normal;font-weight:normal;font-stretch:normal;text-align:start;line-height:125%;letter-spacing:0px;word-spacing:0px;writing-mode:lr-tb;text-anchor:start;fill:#000000;fill-opacity:1;stroke:none;font-family:Linux Biolinum O;-inkscape-font-specification:Linux Biolinum O"
       x="33.640186"
       y="51.00927"
       id="text6647"
       sodipodi:linespacing="125%"><tspan
         sodipodi:role="line"
         id="tspan6649"
         x="33.640186"
         y="51.00927">48</tspan></text>
    <text
       xml:space="preserve"
       style="font-size:14px;font-style:normal;font-variant:normal;font-weight:normal;font-stretch:normal;text-align:start;line-height:125%;letter-spacing:0px;word-spacing:0px;writing-mode:lr-tb;text-anchor:start;fill:#000000;fill-opacity:1;stroke:none;font-family:Linux Biolinum O;-inkscape-font-specification:Linux Biolinum O"
       x="33.64019"
       y="80.509125"
       id="text6651"
       sodipodi:linespacing="125%"><tspan
         sodipodi:role="line"
         id="tspan6653"
         x="33.64019"
         y="80.509125">42</tspan></text>
    <text
       xml:space="preserve"
       style="font-size:14px;font-style:normal;font-variant:normal;font-weight:normal;font-stretch:normal;text-align:start;line-height:125%;letter-spacing:0px;word-spacing:0px;writing-mode:lr-tb;text-anchor:start;fill:#000000;fill-opacity:1;stroke:none;font-family:Linux Biolinum O;-inkscape-font-specification:Linux Biolinum O"
       x="32.605106"
       y="107.93881"
       id="text6655"
       sodipodi:linespacing="125%"><tspan
         sodipodi:role="line"
         id="tspan6657"
         x="32.605106"
         y="107.93881">36</tspan></text>
  </g>
  <rect
     style="fill:#000000;fill-opacity:1;stroke:none"
     id="rect6659"
     width="1.035078"
     height="3.0566909"
     x="71.922073"
     y="136.48097" />
  <rect
     style="fill:#000000;fill-opacity:1;stroke:none"
     id="rect6659-2"
     width="1.035078"
     height="3.0566909"
     x="121.88099"
     y="136.4729" />
  <rect
     style="fill:#000000;fill-opacity:1;stroke:none"
     id="rect6659-28"
     width="1.035078"
     height="3.0566909"
     x="170.85335"
     y="136.47292" />
  <rect
     style="fill:#000000;fill-opacity:1;stroke:none"
     id="rect6659-9"
     width="1.035078"
     height="3.0566909"
     x="220.92546"
     y="136.5376" />
  <rect
     style="fill:#000000;fill-opacity:1;stroke:none"
     id="rect6659-7"
     width="1.035078"
     height="3.0566909"
     x="121.43992"
     y="-33.874676"
     transform="matrix(0,1,-1,0,0,0)" />
  <rect
     style="fill:#000000;fill-opacity:1;stroke:none"
     id="rect6659-3"
     width="1.035078"
     height="3.0566909"
     x="106.49592"
     y="-34.004063"
     transform="matrix(0,1,-1,0,0,0)" />
  <rect
     style="fill:#000000;fill-opacity:1;stroke:none"
     id="rect6659-3-6"
     width="1.035078"
     height="3.0566909"
     x="92.457619"
     y="-33.87468"
     transform="matrix(0,1,-1,0,0,0)" />
  <rect
     style="fill:#000000;fill-opacity:1;stroke:none"
     id="rect6659-3-1"
     width="1.035078"
     height="3.0566909"
     x="78.483994"
     y="-33.680603"
     transform="matrix(0,1,-1,0,0,0)" />
  <rect
     style="fill:#000000;fill-opacity:1;stroke:none"
     id="rect6659-3-2"
     width="1.035078"
     height="3.0566909"
     x="63.4753"
     y="-33.80999"
     transform="matrix(0,1,-1,0,0,0)" />
  <rect
     style="fill:#000000;fill-opacity:1;stroke:none"
     id="rect6659-3-9"
     width="1.035078"
     height="3.0566909"
     x="49.501678"
     y="-33.809986"
     transform="matrix(0,1,-1,0,0,0)" />
  <rect
     style="fill:#000000;fill-opacity:1;stroke:none"
     id="rect6659-3-3"
     width="1.035078"
     height="3.0566909"
     x="34.428288"
     y="-34.004066"
     transform="matrix(0,1,-1,0,0,0)" />
  <rect
     style="fill:#000000;fill-opacity:1;stroke:none"
     id="rect6659-3-19"
     width="1.035078"
     height="3.0566909"
     x="20.519365"
     y="-33.809986"
     transform="matrix(0,1,-1,0,0,0)" />
</svg>
